<svg xmlns="http://www.w3.org/2000/svg" xmlns:xlink="http://www.w3.org/1999/xlink" contentStyleType="text/css" data-diagram-type="SEQUENCE" height="417.6px" preserveAspectRatio="none" style="width:1015px;height:417px;background:#FFFFFF;" version="1.1" viewBox="0 0 1015 417" width="1015.2px" zoomAndPan="magnify"><title>US03 - Register Physician</title><defs/><g><text fill="#000000" font-family="sans-serif" font-size="8.4" font-weight="bold" lengthAdjust="spacing" textLength="103.6424" x="478.0002" y="18.0645">US03 - Register Physician</text><rect fill="#E6F2FF" height="387.1898" style="stroke:#181818;stroke-width:0.3;" width="355.8636" x="204.5095" y="27.3727"/><text fill="#000000" font-family="sans-serif" font-size="7.8" font-weight="bold" lengthAdjust="spacing" textLength="109.2495" x="327.8165" y="35.7896">Physician Service (Replica A)</text><rect fill="#F9F9F9" height="387.1898" style="stroke:#181818;stroke-width:0.3;" width="185.647" x="760.7162" y="27.3727"/><text fill="#000000" font-family="sans-serif" font-size="7.8" font-weight="bold" lengthAdjust="spacing" textLength="182.047" x="762.5162" y="35.7896">Physician Service (Replica B) / Appointment SVC</text><g><title>API Gateway</title><rect fill="#FFFFFF" height="195.5461" style="stroke:#181818;stroke-width:0.6;" width="6" x="137.8318" y="93.9199"/></g><g><title>PhysicianController</title><rect fill="#FFFFFF" height="131.4223" style="stroke:#181818;stroke-width:0.6;" width="6" x="244.2914" y="139.2691"/></g><g><title>PhysicianService</title><rect fill="#FFFFFF" height="93.873" style="stroke:#181818;stroke-width:0.6;" width="6" x="343.8586" y="158.0438"/></g><g><title>PhysicianRepository</title><rect fill="#FFFFFF" height="18.7746" style="stroke:#181818;stroke-width:0.6;" width="6" x="428.2887" y="176.8184"/></g><g><title>PhysicianProducer</title><rect fill="#FFFFFF" height="18.7746" style="stroke:#181818;stroke-width:0.6;" width="6" x="515.756" y="214.3676"/></g><g><title>DataSyncConsumer</title><rect fill="#FFFFFF" height="22.3746" style="stroke:#181818;stroke-width:0.6;" width="6" x="850.5397" y="324.0152"/></g><rect fill="none" height="56.9238" style="stroke:#000000;stroke-width:0.9;" width="398.7869" x="612.815" y="298.466"/><g><title>Administrator</title><rect fill="#000000" fill-opacity="0.00000" height="291.6445" width="4.8" x="27.1406" y="73.9453"/><line style="stroke:#181818;stroke-width:0.3;stroke-dasharray:3,3;" x1="29.4" x2="29.4" y1="73.9453" y2="365.5898"/></g><g><title>API Gateway</title><rect fill="#000000" fill-opacity="0.00000" height="291.6445" width="4.8" x="138.4318" y="73.9453"/><line style="stroke:#181818;stroke-width:0.3;stroke-dasharray:3,3;" x1="140.3209" x2="140.3209" y1="73.9453" y2="365.5898"/></g><g><title>PhysicianController</title><rect fill="#000000" fill-opacity="0.00000" height="291.6445" width="4.8" x="244.8914" y="73.9453"/><line style="stroke:#181818;stroke-width:0.3;stroke-dasharray:3,3;" x1="247.1095" x2="247.1095" y1="73.9453" y2="365.5898"/></g><g><title>PhysicianService</title><rect fill="#000000" fill-opacity="0.00000" height="291.6445" width="4.8" x="344.4586" y="73.9453"/><line style="stroke:#181818;stroke-width:0.3;stroke-dasharray:3,3;" x1="346.6787" x2="346.6787" y1="73.9453" y2="365.5898"/></g><g><title>PhysicianRepository</title><rect fill="#000000" fill-opacity="0.00000" height="291.6445" width="4.8" x="428.8887" y="73.9453"/><line style="stroke:#181818;stroke-width:0.3;stroke-dasharray:3,3;" x1="431.0385" x2="431.0385" y1="73.9453" y2="365.5898"/></g><g><title>PhysicianProducer</title><rect fill="#000000" fill-opacity="0.00000" height="291.6445" width="4.8" x="516.356" y="73.9453"/><line style="stroke:#181818;stroke-width:0.3;stroke-dasharray:3,3;" x1="518.5389" x2="518.5389" y1="73.9453" y2="365.5898"/></g><g><title>RabbitMQ Broker</title><rect fill="#000000" fill-opacity="0.00000" height="291.6445" width="4.8" x="654.8584" y="73.9453"/><line style="stroke:#181818;stroke-width:0.3;stroke-dasharray:3,3;" x1="657.215" x2="657.215" y1="73.9453" y2="365.5898"/></g><g><title>DataSyncConsumer</title><rect fill="#000000" fill-opacity="0.00000" height="291.6445" width="4.8" x="851.1397" y="73.9453"/><line style="stroke:#181818;stroke-width:0.3;stroke-dasharray:3,3;" x1="853.1571" x2="853.1571" y1="73.9453" y2="365.5898"/></g><g class="participant participant-head" data-participant="Administrator"><text fill="#000000" font-family="sans-serif" font-size="8.4" lengthAdjust="spacing" textLength="49.4812" x="3" y="71.8371">Administrator</text><ellipse cx="29.5406" cy="31.8727" fill="#E2E2F0" rx="4.8" ry="4.8" style="stroke:#181818;stroke-width:0.3;"/><path d="M29.5406,36.6727 L29.5406,52.8727 M21.7406,41.4727 L37.3406,41.4727 M29.5406,52.8727 L21.7406,61.8727 M29.5406,52.8727 L37.3406,61.8727" fill="none" style="stroke:#181818;stroke-width:0.3;"/></g><g class="participant participant-tail" data-participant="Administrator"><text fill="#000000" font-family="sans-serif" font-size="8.4" lengthAdjust="spacing" textLength="49.4812" x="3" y="374.0543">Administrator</text><ellipse cx="29.5406" cy="381.2625" fill="#E2E2F0" rx="4.8" ry="4.8" style="stroke:#181818;stroke-width:0.3;"/><path d="M29.5406,386.0625 L29.5406,402.2625 M21.7406,390.8625 L37.3406,390.8625 M29.5406,402.2625 L21.7406,411.2625 M29.5406,402.2625 L37.3406,411.2625" fill="none" style="stroke:#181818;stroke-width:0.3;"/></g><g class="participant participant-head" data-participant="gateway"><rect fill="#E2E2F0" height="19.5727" rx="1.5" ry="1.5" style="stroke:#181818;stroke-width:0.3;" width="57.4219" x="112.1209" y="53.7727"/><text fill="#000000" font-family="sans-serif" font-size="8.4" lengthAdjust="spacing" textLength="49.0219" x="116.3209" y="67.0371">API Gateway</text></g><g class="participant participant-tail" data-participant="gateway"><rect fill="#E2E2F0" height="19.5727" rx="1.5" ry="1.5" style="stroke:#181818;stroke-width:0.3;" width="57.4219" x="112.1209" y="364.9898"/><text fill="#000000" font-family="sans-serif" font-size="8.4" lengthAdjust="spacing" textLength="49.0219" x="116.3209" y="378.2543">API Gateway</text></g><g class="participant participant-head" data-participant="controller"><rect fill="#E2E2F0" height="19.5727" rx="1.5" ry="1.5" style="stroke:#181818;stroke-width:0.3;" width="80.7639" x="206.9095" y="53.7727"/><text fill="#000000" font-family="sans-serif" font-size="8.4" lengthAdjust="spacing" textLength="72.3639" x="211.1095" y="67.0371">PhysicianController</text></g><g class="participant participant-tail" data-participant="controller"><rect fill="#E2E2F0" height="19.5727" rx="1.5" ry="1.5" style="stroke:#181818;stroke-width:0.3;" width="80.7639" x="206.9095" y="364.9898"/><text fill="#000000" font-family="sans-serif" font-size="8.4" lengthAdjust="spacing" textLength="72.3639" x="211.1095" y="378.2543">PhysicianController</text></g><g class="participant participant-head" data-participant="service"><rect fill="#E2E2F0" height="19.5727" rx="1.5" ry="1.5" style="stroke:#181818;stroke-width:0.3;" width="72.3598" x="310.6787" y="53.7727"/><text fill="#000000" font-family="sans-serif" font-size="8.4" lengthAdjust="spacing" textLength="63.9598" x="314.8787" y="67.0371">PhysicianService</text></g><g class="participant participant-tail" data-participant="service"><rect fill="#E2E2F0" height="19.5727" rx="1.5" ry="1.5" style="stroke:#181818;stroke-width:0.3;" width="72.3598" x="310.6787" y="364.9898"/><text fill="#000000" font-family="sans-serif" font-size="8.4" lengthAdjust="spacing" textLength="63.9598" x="314.8787" y="378.2543">PhysicianService</text></g><g class="participant participant-head" data-participant="repo"><rect fill="#E2E2F0" height="19.5727" rx="1.5" ry="1.5" style="stroke:#181818;stroke-width:0.3;" width="84.5004" x="389.0385" y="53.7727"/><text fill="#000000" font-family="sans-serif" font-size="8.4" lengthAdjust="spacing" textLength="76.1004" x="393.2385" y="67.0371">PhysicianRepository</text></g><g class="participant participant-tail" data-participant="repo"><rect fill="#E2E2F0" height="19.5727" rx="1.5" ry="1.5" style="stroke:#181818;stroke-width:0.3;" width="84.5004" x="389.0385" y="364.9898"/><text fill="#000000" font-family="sans-serif" font-size="8.4" lengthAdjust="spacing" textLength="76.1004" x="393.2385" y="378.2543">PhysicianRepository</text></g><g class="participant participant-head" data-participant="producer"><rect fill="#E2E2F0" height="19.5727" rx="1.5" ry="1.5" style="stroke:#181818;stroke-width:0.3;" width="78.4342" x="479.5389" y="53.7727"/><text fill="#000000" font-family="sans-serif" font-size="8.4" lengthAdjust="spacing" textLength="70.0342" x="483.7389" y="67.0371">PhysicianProducer</text></g><g class="participant participant-tail" data-participant="producer"><rect fill="#E2E2F0" height="19.5727" rx="1.5" ry="1.5" style="stroke:#181818;stroke-width:0.3;" width="78.4342" x="479.5389" y="364.9898"/><text fill="#000000" font-family="sans-serif" font-size="8.4" lengthAdjust="spacing" textLength="70.0342" x="483.7389" y="378.2543">PhysicianProducer</text></g><g class="participant participant-head" data-participant="mq"><path d="M621.815,56.7727 L692.7018,56.7727 C695.7018,56.7727 695.7018,65.359 695.7018,65.359 C695.7018,65.359 695.7018,73.9453 692.7018,73.9453 L621.815,73.9453 C618.815,73.9453 618.815,65.359 618.815,65.359 C618.815,65.359 618.815,56.7727 621.815,56.7727" fill="#E2E2F0" style="stroke:#181818;stroke-width:0.3;"/><path d="M692.7018,56.7727 C689.7018,56.7727 689.7018,65.359 689.7018,65.359 C689.7018,73.9453 692.7018,73.9453 692.7018,73.9453" fill="none" style="stroke:#181818;stroke-width:0.3;"/><text fill="#000000" font-family="sans-serif" font-size="8.4" lengthAdjust="spacing" textLength="64.8867" x="621.815" y="68.8371">RabbitMQ Broker</text></g><g class="participant participant-tail" data-participant="mq"><path d="M621.815,364.9898 L692.7018,364.9898 C695.7018,364.9898 695.7018,373.5762 695.7018,373.5762 C695.7018,373.5762 695.7018,382.1625 692.7018,382.1625 L621.815,382.1625 C618.815,382.1625 618.815,373.5762 618.815,373.5762 C618.815,373.5762 618.815,364.9898 621.815,364.9898" fill="#E2E2F0" style="stroke:#181818;stroke-width:0.3;"/><path d="M692.7018,364.9898 C689.7018,364.9898 689.7018,373.5762 689.7018,373.5762 C689.7018,382.1625 692.7018,382.1625 692.7018,382.1625" fill="none" style="stroke:#181818;stroke-width:0.3;"/><text fill="#000000" font-family="sans-serif" font-size="8.4" lengthAdjust="spacing" textLength="64.8867" x="621.815" y="377.0543">RabbitMQ Broker</text></g><g class="participant participant-head" data-participant="consumer"><rect fill="#E2E2F0" height="19.5727" rx="1.5" ry="1.5" style="stroke:#181818;stroke-width:0.3;" width="83.5652" x="811.7571" y="53.7727"/><text fill="#000000" font-family="sans-serif" font-size="8.4" lengthAdjust="spacing" textLength="75.1652" x="815.9571" y="67.0371">DataSyncConsumer</text></g><g class="participant participant-tail" data-participant="consumer"><rect fill="#E2E2F0" height="19.5727" rx="1.5" ry="1.5" style="stroke:#181818;stroke-width:0.3;" width="83.5652" x="811.7571" y="364.9898"/><text fill="#000000" font-family="sans-serif" font-size="8.4" lengthAdjust="spacing" textLength="75.1652" x="815.9571" y="378.2543">DataSyncConsumer</text></g><g><title>API Gateway</title><rect fill="#FFFFFF" height="195.5461" style="stroke:#181818;stroke-width:0.6;" width="6" x="137.8318" y="93.9199"/></g><g><title>PhysicianController</title><rect fill="#FFFFFF" height="131.4223" style="stroke:#181818;stroke-width:0.6;" width="6" x="244.2914" y="139.2691"/></g><g><title>PhysicianService</title><rect fill="#FFFFFF" height="93.873" style="stroke:#181818;stroke-width:0.6;" width="6" x="343.8586" y="158.0438"/></g><g><title>PhysicianRepository</title><rect fill="#FFFFFF" height="18.7746" style="stroke:#181818;stroke-width:0.6;" width="6" x="428.2887" y="176.8184"/></g><g><title>PhysicianProducer</title><rect fill="#FFFFFF" height="18.7746" style="stroke:#181818;stroke-width:0.6;" width="6" x="515.756" y="214.3676"/></g><g><title>DataSyncConsumer</title><rect fill="#FFFFFF" height="22.3746" style="stroke:#181818;stroke-width:0.6;" width="6" x="850.5397" y="324.0152"/></g><g class="message" data-participant-1="Administrator" data-participant-2="gateway"><polygon fill="#181818" points="130.6318,91.5199,136.6318,93.9199,130.6318,96.3199,133.0318,93.9199" style="stroke:#181818;stroke-width:0.6;"/><line style="stroke:#181818;stroke-width:0.6;" x1="29.5406" x2="134.2318" y1="93.9199" y2="93.9199"/><text fill="#000000" font-family="sans-serif" font-size="7.8" font-weight="bold" lengthAdjust="spacing" textLength="4.338" x="33.7406" y="90.7623">1</text><text fill="#000000" font-family="sans-serif" font-size="7.8" lengthAdjust="spacing" textLength="90.1532" x="40.4786" y="90.7623">POST /physicians (JSON)</text></g><g class="message" data-participant-1="gateway" data-participant-2="gateway"><line style="stroke:#181818;stroke-width:0.6;" x1="143.8318" x2="169.0318" y1="112.6945" y2="112.6945"/><line style="stroke:#181818;stroke-width:0.6;" x1="169.0318" x2="169.0318" y1="112.6945" y2="120.4945"/><line style="stroke:#181818;stroke-width:0.6;" x1="144.4318" x2="169.0318" y1="120.4945" y2="120.4945"/><polygon fill="#181818" points="150.4318,118.0945,144.4318,120.4945,150.4318,122.8945,148.0318,120.4945" style="stroke:#181818;stroke-width:0.6;"/><text fill="#000000" font-family="sans-serif" font-size="7.8" font-weight="bold" lengthAdjust="spacing" textLength="4.338" x="148.0318" y="109.5369">2</text><text fill="#000000" font-family="sans-serif" font-size="7.8" lengthAdjust="spacing" textLength="79.3216" x="154.7698" y="109.5369">Valida JWT (Stateless)</text></g><g class="message" data-participant-1="gateway" data-participant-2="controller"><polygon fill="#181818" points="237.0914,136.8691,243.0914,139.2691,237.0914,141.6691,239.4914,139.2691" style="stroke:#181818;stroke-width:0.6;"/><line style="stroke:#181818;stroke-width:0.6;" x1="143.8318" x2="240.6914" y1="139.2691" y2="139.2691"/><text fill="#000000" font-family="sans-serif" font-size="7.8" font-weight="bold" lengthAdjust="spacing" textLength="4.338" x="148.0318" y="136.1115">3</text><text fill="#000000" font-family="sans-serif" font-size="7.8" lengthAdjust="spacing" textLength="63.7482" x="154.7698" y="136.1115">encaminha pedido</text></g><g class="message" data-participant-1="controller" data-participant-2="service"><polygon fill="#181818" points="336.6586,155.6437,342.6586,158.0438,336.6586,160.4438,339.0586,158.0438" style="stroke:#181818;stroke-width:0.6;"/><line style="stroke:#181818;stroke-width:0.6;" x1="250.2914" x2="340.2586" y1="158.0438" y2="158.0438"/><text fill="#000000" font-family="sans-serif" font-size="7.8" font-weight="bold" lengthAdjust="spacing" textLength="4.338" x="254.4914" y="154.8861">4</text><text fill="#000000" font-family="sans-serif" font-size="7.8" lengthAdjust="spacing" textLength="75.4292" x="261.2294" y="154.8861">registerPhysician(dto)</text></g><g class="message" data-participant-1="service" data-participant-2="repo"><polygon fill="#181818" points="421.0887,174.4184,427.0887,176.8184,421.0887,179.2184,423.4887,176.8184" style="stroke:#181818;stroke-width:0.6;"/><line style="stroke:#181818;stroke-width:0.6;" x1="349.8586" x2="424.6887" y1="176.8184" y2="176.8184"/><text fill="#000000" font-family="sans-serif" font-size="7.8" font-weight="bold" lengthAdjust="spacing" textLength="4.338" x="354.0586" y="173.6607">5</text><text fill="#000000" font-family="sans-serif" font-size="7.8" lengthAdjust="spacing" textLength="40.314" x="360.7966" y="173.6607">save(entity)</text></g><g class="message" data-participant-1="repo" data-participant-2="service"><polygon fill="#181818" points="356.4586,193.193,350.4586,195.593,356.4586,197.993,354.0586,195.593" style="stroke:#181818;stroke-width:0.6;"/><line style="stroke:#181818;stroke-width:0.6;stroke-dasharray:1.2,1.2;" x1="352.8586" x2="430.6887" y1="195.593" y2="195.593"/><text fill="#000000" font-family="sans-serif" font-size="7.8" font-weight="bold" lengthAdjust="spacing" textLength="4.338" x="360.0586" y="192.4354">6</text><text fill="#000000" font-family="sans-serif" font-size="7.8" lengthAdjust="spacing" textLength="40.969" x="366.7966" y="192.4354">entity (id=1)</text></g><g class="message" data-participant-1="service" data-participant-2="producer"><polygon fill="#181818" points="508.556,211.9676,514.556,214.3676,508.556,216.7676,510.956,214.3676" style="stroke:#181818;stroke-width:0.6;"/><line style="stroke:#181818;stroke-width:0.6;" x1="349.8586" x2="512.156" y1="214.3676" y2="214.3676"/><text fill="#000000" font-family="sans-serif" font-size="7.8" font-weight="bold" lengthAdjust="spacing" textLength="4.338" x="354.0586" y="211.21">7</text><text fill="#000000" font-family="sans-serif" font-size="7.8" lengthAdjust="spacing" textLength="103.6128" x="360.7966" y="211.21">notifyPhysicianCreated(entity)</text></g><g class="message" data-participant-1="producer" data-participant-2="mq"><polygon fill="#181818" points="650.0584,230.7422,656.0584,233.1422,650.0584,235.5422,652.4584,233.1422" style="stroke:#181818;stroke-width:0.6;"/><line style="stroke:#181818;stroke-width:0.6;" x1="518.756" x2="653.6584" y1="233.1422" y2="233.1422"/><text fill="#000000" font-family="sans-serif" font-size="7.8" font-weight="bold" lengthAdjust="spacing" textLength="4.338" x="522.956" y="229.9846">8</text><text fill="#000000" font-family="sans-serif" font-size="7.8" lengthAdjust="spacing" textLength="114.3645" x="529.6939" y="229.9846">Publish "PhysicianCreatedEvent"</text></g><g class="message" data-participant-1="service" data-participant-2="controller"><polygon fill="#181818" points="256.8914,249.5168,250.8914,251.9168,256.8914,254.3168,254.4914,251.9168" style="stroke:#181818;stroke-width:0.6;"/><line style="stroke:#181818;stroke-width:0.6;stroke-dasharray:1.2,1.2;" x1="253.2914" x2="346.2586" y1="251.9168" y2="251.9168"/><text fill="#000000" font-family="sans-serif" font-size="7.8" font-weight="bold" lengthAdjust="spacing" textLength="4.338" x="260.4914" y="248.7592">9</text><text fill="#000000" font-family="sans-serif" font-size="7.8" lengthAdjust="spacing" textLength="38.7905" x="267.2294" y="248.7592">DTO (id=1)</text></g><g class="message" data-participant-1="controller" data-participant-2="gateway"><polygon fill="#181818" points="150.4318,268.2914,144.4318,270.6914,150.4318,273.0914,148.0318,270.6914" style="stroke:#181818;stroke-width:0.6;"/><line style="stroke:#181818;stroke-width:0.6;stroke-dasharray:1.2,1.2;" x1="146.8318" x2="246.6914" y1="270.6914" y2="270.6914"/><text fill="#000000" font-family="sans-serif" font-size="7.8" font-weight="bold" lengthAdjust="spacing" textLength="8.676" x="154.0318" y="267.5338">10</text><text fill="#000000" font-family="sans-serif" font-size="7.8" lengthAdjust="spacing" textLength="42.9305" x="165.1078" y="267.5338">201 Created</text></g><g class="message" data-participant-1="gateway" data-participant-2="Administrator"><polygon fill="#181818" points="36.1406,287.066,30.1406,289.466,36.1406,291.866,33.7406,289.466" style="stroke:#181818;stroke-width:0.6;"/><line style="stroke:#181818;stroke-width:0.6;stroke-dasharray:1.2,1.2;" x1="32.5406" x2="140.2318" y1="289.466" y2="289.466"/><text fill="#000000" font-family="sans-serif" font-size="7.8" font-weight="bold" lengthAdjust="spacing" textLength="8.676" x="39.7406" y="286.3084">11</text><text fill="#000000" font-family="sans-serif" font-size="7.8" lengthAdjust="spacing" textLength="42.9305" x="50.8166" y="286.3084">201 Created</text></g><path d="M612.815,298.466 L825.7658,298.466 L825.7658,304.0406 L819.7658,310.0406 L612.815,310.0406 L612.815,298.466" fill="#EEEEEE" style="stroke:#000000;stroke-width:0.9;"/><rect fill="none" height="56.9238" style="stroke:#000000;stroke-width:0.9;" width="398.7869" x="612.815" y="298.466"/><text fill="#000000" font-family="sans-serif" font-size="7.8" font-weight="bold" lengthAdjust="spacing" textLength="185.9508" x="621.815" y="307.483">Sincroniza&#231;&#227;o Ass&#237;ncrona (Eventual Consistency)</text><g class="message" data-participant-1="mq" data-participant-2="consumer"><polygon fill="#181818" points="843.3397,321.6152,849.3397,324.0152,843.3397,326.4152,845.7397,324.0152" style="stroke:#181818;stroke-width:0.6;"/><line style="stroke:#181818;stroke-width:0.6;" x1="657.2584" x2="846.9397" y1="324.0152" y2="324.0152"/><text fill="#000000" font-family="sans-serif" font-size="7.8" font-weight="bold" lengthAdjust="spacing" textLength="8.676" x="661.4584" y="320.8576">12</text><text fill="#000000" font-family="sans-serif" font-size="7.8" lengthAdjust="spacing" textLength="122.1645" x="672.5344" y="320.8576">Consome "PhysicianCreatedEvent"</text></g><g class="message" data-participant-1="consumer" data-participant-2="consumer"><line style="stroke:#181818;stroke-width:0.6;" x1="856.5397" x2="881.7397" y1="345.7898" y2="345.7898"/><line style="stroke:#181818;stroke-width:0.6;" x1="881.7397" x2="881.7397" y1="345.7898" y2="353.5898"/><line style="stroke:#181818;stroke-width:0.6;" x1="853.5397" x2="881.7397" y1="353.5898" y2="353.5898"/><polygon fill="#181818" points="859.5397,351.1898,853.5397,353.5898,859.5397,355.9898,857.1397,353.5898" style="stroke:#181818;stroke-width:0.6;"/><text fill="#000000" font-family="sans-serif" font-size="7.8" font-weight="bold" lengthAdjust="spacing" textLength="8.676" x="860.7397" y="342.6322">13</text><text fill="#000000" font-family="sans-serif" font-size="7.8" lengthAdjust="spacing" textLength="126.5862" x="871.8157" y="342.6322">Grava na R&#233;plica B / Atualiza CQRS</text></g><!--SRC=[XLHDZzCm4BtxLupA9JbK-u641198tUvsnKhGRbEMypGnhKLYfxPJA7-70-B0h-WVOvmFnrbsYtlnHFEUtyoRgHKsv_0fENy9OrZoZJ2MQrXi3qQa0YLZM5abgsBDDTrJgpHCia98ojD84IjHMqejKLeOJHRluHOj_uQ74Q21JNDdRAs-myYpGiBrNgGSeYKlSv4YJE8HlBXvDRkSpHZG6R1wt5H9grMUSrspfpuyWMcVgW6ckP_89ZtA2AghqQyfF96zq2ghqbPDsGQComoeNiPs5QyuZ9QuNWlxuHwkjFhQ9XUx__VaAeOpc9Ib4j8Md1vE7gRKfTbhz_jNrJLQJ0uofIQPgkXRL0UzA3Qm3yRlEfFW3IpcoGhEoawIWUWkcN-CdUzYJrdUpmuoG3zWBZA4kyyhY19BdtDkJCp2vDunokSoHPAoHIXv9ZBLFnCOIyTL6W29flMHE7GxiRwDKMPLN4CyM-Twm-HEXoSgvp3n6DppY7eix27sQPx1Zu4xDM8yKD408HBPsuiUdl4XmLFFTqD3959PyUNGpxhcXCoU5-Nd3OBZ-OYxs3bBgtKkp3PSeeRuPa_CewV4Uc8s4FlOlklLFAmu8F0D3rqRZChb-GMqEbW037ptGqEuuSG-Y_P_DcoZLLL28cIgbHG_yFZh-5F1n9ZZd_eJGbINNs4ERbtS2CcqRJArhIcrNXnwpcMeWfziOLX2it3jr3OaGy9RZNi4Kh4y_cvNtMswaqDYONg_J1wtDDnZzXS0]--></g></svg>