<svg xmlns="http://www.w3.org/2000/svg" xmlns:xlink="http://www.w3.org/1999/xlink" contentStyleType="text/css" data-diagram-type="ACTIVITY" height="1248px" preserveAspectRatio="none" style="width:861px;height:1248px;background:#FFFFFF;" version="1.1" viewBox="0 0 861 1248" width="861px" zoomAndPan="magnify"><title>Fluxograma - Cria&#231;&#227;o de Physician e Sincroniza&#231;&#227;o</title><defs/><g><g class="title" data-source-line="1"><text fill="#000000" font-family="sans-serif" font-size="14" font-weight="bold" lengthAdjust="spacing" textLength="343.1162" x="257.4565" y="35.1074">Fluxograma - Cria&#231;&#227;o de Physician e Sincroniza&#231;&#227;o</text></g><ellipse cx="434.5146" cy="59.6211" fill="#222222" rx="10" ry="10" style="stroke:#222222;stroke-width:1;"/><rect fill="#F1F1F1" height="35.9609" rx="12.5" ry="12.5" style="stroke:#181818;stroke-width:0.5;" width="224.75" x="322.1396" y="89.6211"/><text fill="#000000" font-family="sans-serif" font-size="12" lengthAdjust="spacing" textLength="204.75" x="332.1396" y="112.5703">Administrador envia POST /physicians</text><rect fill="none" height="308.5039" style="stroke:#000000;stroke-width:1.5;" width="621.5898" x="189.4905" y="135.582"/><path d="M281.1936,135.582 L281.1936,147.2031 L271.1936,157.2031 L189.4905,157.2031" fill="none" style="stroke:#000000;stroke-width:1.5;"/><text fill="#000000" font-family="sans-serif" font-size="14" lengthAdjust="spacing" textLength="81.7031" x="192.4905" y="151.6895">API Gateway</text><rect fill="#F1F1F1" height="35.9609" rx="12.5" ry="12.5" style="stroke:#181818;stroke-width:0.5;" width="128.6855" x="370.1719" y="174.2031"/><text fill="#000000" font-family="sans-serif" font-size="12" lengthAdjust="spacing" textLength="108.6855" x="380.1719" y="197.1523">Verificar Token JWT</text><polygon fill="#F1F1F1" points="399.3528,230.1641,469.6765,230.1641,481.6765,242.1641,469.6765,254.1641,399.3528,254.1641,387.3528,242.1641,399.3528,230.1641" style="stroke:#181818;stroke-width:0.5;"/><text fill="#000000" font-family="sans-serif" font-size="11" lengthAdjust="spacing" textLength="70.3237" x="399.3528" y="246.7188">Token V&#225;lido?</text><text fill="#000000" font-family="sans-serif" font-size="11" lengthAdjust="spacing" textLength="20.1792" x="367.1736" y="239.4033">N&#227;o</text><text fill="#000000" font-family="sans-serif" font-size="11" lengthAdjust="spacing" textLength="18.9438" x="481.6765" y="239.4033">Sim</text><rect fill="#F1F1F1" height="35.9609" rx="12.5" ry="12.5" style="stroke:#181818;stroke-width:0.5;" width="164.7559" x="209.4905" y="264.1641"/><text fill="#000000" font-family="sans-serif" font-size="12" lengthAdjust="spacing" textLength="144.7559" x="219.4905" y="287.1133">Retornar 401 Unauthorized</text><ellipse cx="291.8684" cy="331.125" fill="none" rx="11" ry="11" style="stroke:#222222;stroke-width:1;"/><ellipse cx="291.8684" cy="331.125" fill="#222222" rx="6" ry="6" style="stroke:#222222;stroke-width:1;"/><rect fill="#F1F1F1" height="35.9609" rx="12.5" ry="12.5" style="stroke:#181818;stroke-width:0.5;" width="142.0156" x="506.1531" y="264.1641"/><text fill="#000000" font-family="sans-serif" font-size="12" lengthAdjust="spacing" textLength="122.0156" x="516.1531" y="287.1133">Verificar Role (ADMIN)</text><polygon fill="#F1F1F1" points="553.3159,320.125,601.0059,320.125,613.0059,332.125,601.0059,344.125,553.3159,344.125,541.3159,332.125,553.3159,320.125" style="stroke:#181818;stroke-width:0.5;"/><text fill="#000000" font-family="sans-serif" font-size="11" lengthAdjust="spacing" textLength="47.6899" x="553.3159" y="336.6797">&#201; Admin?</text><text fill="#000000" font-family="sans-serif" font-size="11" lengthAdjust="spacing" textLength="20.1792" x="521.1367" y="329.3643">N&#227;o</text><text fill="#000000" font-family="sans-serif" font-size="11" lengthAdjust="spacing" textLength="18.9438" x="613.0059" y="329.3643">Sim</text><rect fill="#F1F1F1" height="35.9609" rx="12.5" ry="12.5" style="stroke:#181818;stroke-width:0.5;" width="147.4121" x="404.2463" y="354.125"/><text fill="#000000" font-family="sans-serif" font-size="12" lengthAdjust="spacing" textLength="127.4121" x="414.2463" y="377.0742">Retornar 403 Forbidden</text><ellipse cx="477.9524" cy="421.0859" fill="none" rx="11" ry="11" style="stroke:#222222;stroke-width:1;"/><ellipse cx="477.9524" cy="421.0859" fill="#222222" rx="6" ry="6" style="stroke:#222222;stroke-width:1;"/><rect fill="#F1F1F1" height="35.9609" rx="12.5" ry="12.5" style="stroke:#181818;stroke-width:0.5;" width="209.4219" x="571.6584" y="354.125"/><text fill="#000000" font-family="sans-serif" font-size="12" lengthAdjust="spacing" textLength="189.4219" x="581.6584" y="377.0742">Encaminhar para Physician Service</text><rect fill="none" height="288.4648" style="stroke:#000000;stroke-width:1.5;" width="495.5254" x="214.2544" y="454.0859"/><path d="M407.8745,454.0859 L407.8745,465.707 L397.8745,475.707 L214.2544,475.707" fill="none" style="stroke:#000000;stroke-width:1.5;"/><text fill="#000000" font-family="sans-serif" font-size="14" lengthAdjust="spacing" textLength="183.6201" x="217.2544" y="470.1934">Physician Service (Replica A)</text><rect fill="#F1F1F1" height="35.9609" rx="12.5" ry="12.5" style="stroke:#181818;stroke-width:0.5;" width="138.7285" x="365.1504" y="492.707"/><text fill="#000000" font-family="sans-serif" font-size="12" lengthAdjust="spacing" textLength="118.7285" x="375.1504" y="515.6563">Validar dados do DTO</text><polygon fill="#F1F1F1" points="395.9905,548.668,473.0388,548.668,485.0388,560.668,473.0388,572.668,395.9905,572.668,383.9905,560.668,395.9905,548.668" style="stroke:#181818;stroke-width:0.5;"/><text fill="#000000" font-family="sans-serif" font-size="11" lengthAdjust="spacing" textLength="77.0483" x="395.9905" y="565.2227">Dados V&#225;lidos?</text><text fill="#000000" font-family="sans-serif" font-size="11" lengthAdjust="spacing" textLength="20.1792" x="363.8113" y="557.9072">N&#227;o</text><text fill="#000000" font-family="sans-serif" font-size="11" lengthAdjust="spacing" textLength="18.9438" x="485.0388" y="557.9072">Sim</text><rect fill="#F1F1F1" height="35.9609" rx="12.5" ry="12.5" style="stroke:#181818;stroke-width:0.5;" width="162.7578" x="234.2544" y="582.668"/><text fill="#000000" font-family="sans-serif" font-size="12" lengthAdjust="spacing" textLength="142.7578" x="244.2544" y="605.6172">Retornar 400 Bad Request</text><ellipse cx="315.6333" cy="649.6289" fill="none" rx="11" ry="11" style="stroke:#222222;stroke-width:1;"/><ellipse cx="315.6333" cy="649.6289" fill="#222222" rx="6" ry="6" style="stroke:#222222;stroke-width:1;"/><rect fill="#F1F1F1" height="35.9609" rx="12.5" ry="12.5" style="stroke:#181818;stroke-width:0.5;" width="152.0469" x="477.3726" y="582.668"/><text fill="#000000" font-family="sans-serif" font-size="12" lengthAdjust="spacing" textLength="132.0469" x="487.3726" y="605.6172">Gravar na DB Local (H2)</text><rect fill="#F1F1F1" height="35.9609" rx="12.5" ry="12.5" style="stroke:#181818;stroke-width:0.5;" width="272.7676" x="417.0122" y="638.6289"/><text fill="#000000" font-family="sans-serif" font-size="12" lengthAdjust="spacing" textLength="252.7676" x="427.0122" y="661.5781">Publicar Evento no RabbitMQ (Fire-and-Forget)</text><rect fill="#F1F1F1" height="35.9609" rx="12.5" ry="12.5" style="stroke:#181818;stroke-width:0.5;" width="136.0684" x="485.3618" y="694.5898"/><text fill="#000000" font-family="sans-serif" font-size="12" lengthAdjust="spacing" textLength="116.0684" x="495.3618" y="717.5391">Retornar 201 Created</text><rect fill="#555555" height="6" rx="2.5" ry="2.5" style="stroke:#555555;stroke-width:1;" width="839.0293" x="11" y="762.5508"/><rect fill="#F1F1F1" height="35.9609" rx="12.5" ry="12.5" style="stroke:#181818;stroke-width:0.5;" width="250.1211" x="23" y="966.7832"/><text fill="#000000" font-family="sans-serif" font-size="12" lengthAdjust="spacing" textLength="230.1211" x="33" y="989.7324">Responder ao Administrador (201 Created)</text><ellipse cx="148.0605" cy="1045.0547" fill="none" rx="11" ry="11" style="stroke:#222222;stroke-width:1;"/><ellipse cx="148.0605" cy="1045.0547" fill="#222222" rx="6" ry="6" style="stroke:#222222;stroke-width:1;"/><rect fill="none" height="400.7363" style="stroke:#000000;stroke-width:1.5;" width="536.9082" x="301.1211" y="778.5508"/><path d="M479.1963,778.5508 L479.1963,790.1719 L469.1963,800.1719 L301.1211,800.1719" fill="none" style="stroke:#000000;stroke-width:1.5;"/><text fill="#000000" font-family="sans-serif" font-size="14" lengthAdjust="spacing" textLength="168.0752" x="304.1211" y="794.6582">RabbitMQ &amp; Sincroniza&#231;&#227;o</text><rect fill="#F1F1F1" height="35.9609" rx="12.5" ry="12.5" style="stroke:#181818;stroke-width:0.5;" width="126.0664" x="520.0415" y="817.1719"/><text fill="#000000" font-family="sans-serif" font-size="12" lengthAdjust="spacing" textLength="106.0664" x="530.0415" y="840.1211">Evento chega &#224; Fila</text><polygon fill="#F1F1F1" points="528.9663,873.1328,637.1831,873.1328,649.1831,885.1328,637.1831,897.1328,528.9663,897.1328,516.9663,885.1328,528.9663,873.1328" style="stroke:#181818;stroke-width:0.5;"/><text fill="#000000" font-family="sans-serif" font-size="11" lengthAdjust="spacing" textLength="108.2168" x="528.9663" y="889.6875">R&#233;plicas Dispon&#237;veis?</text><text fill="#000000" font-family="sans-serif" font-size="11" lengthAdjust="spacing" textLength="18.9438" x="498.0225" y="882.3721">Sim</text><text fill="#000000" font-family="sans-serif" font-size="11" lengthAdjust="spacing" textLength="103.3345" x="649.1831" y="882.3721">N&#227;o / Rede em baixo</text><rect fill="#F1F1F1" height="35.9609" rx="12.5" ry="12.5" style="stroke:#181818;stroke-width:0.5;" width="217.4258" x="343.1348" y="907.1328"/><text fill="#000000" font-family="sans-serif" font-size="12" lengthAdjust="spacing" textLength="197.4258" x="353.1348" y="930.082">Consumer (R&#233;plica B) recebe evento</text><rect fill="#F1F1F1" height="35.9609" rx="12.5" ry="12.5" style="stroke:#181818;stroke-width:0.5;" width="164.7324" x="369.4814" y="978.0938"/><text fill="#000000" font-family="sans-serif" font-size="12" lengthAdjust="spacing" textLength="144.7324" x="379.4814" y="1001.043">Gravar na DB da R&#233;plica B</text><rect fill="#F1F1F1" height="35.9609" rx="12.5" ry="12.5" style="stroke:#181818;stroke-width:0.5;" width="261.4531" x="321.1211" y="1045.3652"/><text fill="#000000" font-family="sans-serif" font-size="12" lengthAdjust="spacing" textLength="241.4531" x="331.1211" y="1068.3145">Consumer (Appointment SVC) recebe evento</text><rect fill="#F1F1F1" height="35.9609" rx="12.5" ry="12.5" style="stroke:#181818;stroke-width:0.5;" width="140.7207" x="381.4873" y="1101.3262"/><text fill="#000000" font-family="sans-serif" font-size="12" lengthAdjust="spacing" textLength="120.7207" x="391.4873" y="1124.2754">Atualizar tabela CQRS</text><rect fill="#F1F1F1" height="51.9219" rx="12.5" ry="12.5" style="stroke:#181818;stroke-width:0.5;" width="223.4551" x="602.5742" y="907.1328"/><text fill="#000000" font-family="sans-serif" font-size="12" lengthAdjust="spacing" textLength="203.4551" x="612.5742" y="930.082">Mensagem fica na Dead Letter Queue</text><text fill="#000000" font-family="sans-serif" font-size="12" lengthAdjust="spacing" textLength="114.0703" x="612.5742" y="946.043">(ou tenta novamente)</text><polygon fill="#F1F1F1" points="583.0747,1143.2871,595.0747,1155.2871,583.0747,1167.2871,571.0747,1155.2871,583.0747,1143.2871" style="stroke:#181818;stroke-width:0.5;"/><ellipse cx="583.0747" cy="1210.2871" fill="none" rx="11" ry="11" style="stroke:#222222;stroke-width:1;"/><ellipse cx="583.0747" cy="1210.2871" fill="#222222" rx="6" ry="6" style="stroke:#222222;stroke-width:1;"/><rect fill="#555555" height="6" rx="2.5" ry="2.5" style="stroke:#555555;stroke-width:1;" width="839.0293" x="11" y="1231.2871"/><line style="stroke:#181818;stroke-width:1;" x1="434.5146" x2="434.5146" y1="69.6211" y2="89.6211"/><polygon fill="#181818" points="430.5146,79.6211,434.5146,89.6211,438.5146,79.6211,434.5146,83.6211" style="stroke:#181818;stroke-width:1;"/><line style="stroke:#181818;stroke-width:1;" x1="291.8684" x2="291.8684" y1="300.125" y2="320.125"/><polygon fill="#181818" points="287.8684,310.125,291.8684,320.125,295.8684,310.125,291.8684,314.125" style="stroke:#181818;stroke-width:1;"/><line style="stroke:#181818;stroke-width:1;" x1="477.9524" x2="477.9524" y1="390.0859" y2="410.0859"/><polygon fill="#181818" points="473.9524,400.0859,477.9524,410.0859,481.9524,400.0859,477.9524,404.0859" style="stroke:#181818;stroke-width:1;"/><line style="stroke:#181818;stroke-width:1;" x1="541.3159" x2="477.9524" y1="332.125" y2="332.125"/><line style="stroke:#181818;stroke-width:1;" x1="477.9524" x2="477.9524" y1="332.125" y2="354.125"/><polygon fill="#181818" points="473.9524,344.125,477.9524,354.125,481.9524,344.125,477.9524,348.125" style="stroke:#181818;stroke-width:1;"/><line style="stroke:#181818;stroke-width:1;" x1="613.0059" x2="676.3694" y1="332.125" y2="332.125"/><line style="stroke:#181818;stroke-width:1;" x1="676.3694" x2="676.3694" y1="332.125" y2="354.125"/><polygon fill="#181818" points="672.3694,344.125,676.3694,354.125,680.3694,344.125,676.3694,348.125" style="stroke:#181818;stroke-width:1;"/><line style="stroke:#181818;stroke-width:1;" x1="676.3694" x2="676.3694" y1="390.0859" y2="437.0859"/><line style="stroke:#181818;stroke-width:1;" x1="676.3694" x2="434.5146" y1="437.0859" y2="437.0859"/><line style="stroke:#181818;stroke-width:1;" x1="434.5146" x2="434.5146" y1="437.0859" y2="492.707"/><polygon fill="#181818" points="430.5146,482.707,434.5146,492.707,438.5146,482.707,434.5146,486.707" style="stroke:#181818;stroke-width:1;"/><line style="stroke:#181818;stroke-width:1;" x1="577.1609" x2="577.1609" y1="300.125" y2="320.125"/><polygon fill="#181818" points="573.1609,310.125,577.1609,320.125,581.1609,310.125,577.1609,314.125" style="stroke:#181818;stroke-width:1;"/><line style="stroke:#181818;stroke-width:1;" x1="387.3528" x2="291.8684" y1="242.1641" y2="242.1641"/><line style="stroke:#181818;stroke-width:1;" x1="291.8684" x2="291.8684" y1="242.1641" y2="264.1641"/><polygon fill="#181818" points="287.8684,254.1641,291.8684,264.1641,295.8684,254.1641,291.8684,258.1641" style="stroke:#181818;stroke-width:1;"/><line style="stroke:#181818;stroke-width:1;" x1="481.6765" x2="577.1609" y1="242.1641" y2="242.1641"/><line style="stroke:#181818;stroke-width:1;" x1="577.1609" x2="577.1609" y1="242.1641" y2="264.1641"/><polygon fill="#181818" points="573.1609,254.1641,577.1609,264.1641,581.1609,254.1641,577.1609,258.1641" style="stroke:#181818;stroke-width:1;"/><line style="stroke:#181818;stroke-width:1;" x1="434.5146" x2="434.5146" y1="210.1641" y2="230.1641"/><polygon fill="#181818" points="430.5146,220.1641,434.5146,230.1641,438.5146,220.1641,434.5146,224.1641" style="stroke:#181818;stroke-width:1;"/><line style="stroke:#181818;stroke-width:1;" x1="434.5146" x2="434.5146" y1="125.582" y2="174.2031"/><polygon fill="#181818" points="430.5146,164.2031,434.5146,174.2031,438.5146,164.2031,434.5146,168.2031" style="stroke:#181818;stroke-width:1;"/><line style="stroke:#181818;stroke-width:1;" x1="315.6333" x2="315.6333" y1="618.6289" y2="638.6289"/><polygon fill="#181818" points="311.6333,628.6289,315.6333,638.6289,319.6333,628.6289,315.6333,632.6289" style="stroke:#181818;stroke-width:1;"/><line style="stroke:#181818;stroke-width:1;" x1="553.396" x2="553.396" y1="618.6289" y2="638.6289"/><polygon fill="#181818" points="549.396,628.6289,553.396,638.6289,557.396,628.6289,553.396,632.6289" style="stroke:#181818;stroke-width:1;"/><line style="stroke:#181818;stroke-width:1;" x1="553.396" x2="553.396" y1="674.5898" y2="694.5898"/><polygon fill="#181818" points="549.396,684.5898,553.396,694.5898,557.396,684.5898,553.396,688.5898" style="stroke:#181818;stroke-width:1;"/><line style="stroke:#181818;stroke-width:1;" x1="383.9905" x2="315.6333" y1="560.668" y2="560.668"/><line style="stroke:#181818;stroke-width:1;" x1="315.6333" x2="315.6333" y1="560.668" y2="582.668"/><polygon fill="#181818" points="311.6333,572.668,315.6333,582.668,319.6333,572.668,315.6333,576.668" style="stroke:#181818;stroke-width:1;"/><line style="stroke:#181818;stroke-width:1;" x1="485.0388" x2="553.396" y1="560.668" y2="560.668"/><line style="stroke:#181818;stroke-width:1;" x1="553.396" x2="553.396" y1="560.668" y2="582.668"/><polygon fill="#181818" points="549.396,572.668,553.396,582.668,557.396,572.668,553.396,576.668" style="stroke:#181818;stroke-width:1;"/><line style="stroke:#181818;stroke-width:1;" x1="553.396" x2="553.396" y1="730.5508" y2="735.5508"/><line style="stroke:#181818;stroke-width:1;" x1="553.396" x2="434.5146" y1="735.5508" y2="735.5508"/><line style="stroke:#181818;stroke-width:1;" x1="434.5146" x2="434.5146" y1="735.5508" y2="762.5508"/><polygon fill="#181818" points="430.5146,752.5508,434.5146,762.5508,438.5146,752.5508,434.5146,756.5508" style="stroke:#181818;stroke-width:1;"/><line style="stroke:#181818;stroke-width:1;" x1="434.5146" x2="434.5146" y1="528.668" y2="548.668"/><polygon fill="#181818" points="430.5146,538.668,434.5146,548.668,438.5146,538.668,434.5146,542.668" style="stroke:#181818;stroke-width:1;"/><line style="stroke:#181818;stroke-width:1;" x1="148.0605" x2="148.0605" y1="1002.7441" y2="1034.0547"/><polygon fill="#181818" points="144.0605,1024.0547,148.0605,1034.0547,152.0605,1024.0547,148.0605,1028.0547" style="stroke:#181818;stroke-width:1;"/><line style="stroke:#181818;stroke-width:1;" x1="451.8477" x2="451.8477" y1="943.0938" y2="978.0938"/><polygon fill="#181818" points="447.8477,968.0938,451.8477,978.0938,455.8477,968.0938,451.8477,972.0938" style="stroke:#181818;stroke-width:1;"/><line style="stroke:#181818;stroke-width:1;" x1="451.8477" x2="451.8477" y1="1014.0547" y2="1045.3652"/><polygon fill="#181818" points="447.8477,1035.3652,451.8477,1045.3652,455.8477,1035.3652,451.8477,1039.3652" style="stroke:#181818;stroke-width:1;"/><line style="stroke:#181818;stroke-width:1;" x1="451.8477" x2="451.8477" y1="1081.3262" y2="1101.3262"/><polygon fill="#181818" points="447.8477,1091.3262,451.8477,1101.3262,455.8477,1091.3262,451.8477,1095.3262" style="stroke:#181818;stroke-width:1;"/><line style="stroke:#181818;stroke-width:1;" x1="516.9663" x2="451.8477" y1="885.1328" y2="885.1328"/><line style="stroke:#181818;stroke-width:1;" x1="451.8477" x2="451.8477" y1="885.1328" y2="907.1328"/><polygon fill="#181818" points="447.8477,897.1328,451.8477,907.1328,455.8477,897.1328,451.8477,901.1328" style="stroke:#181818;stroke-width:1;"/><line style="stroke:#181818;stroke-width:1;" x1="649.1831" x2="714.3018" y1="885.1328" y2="885.1328"/><line style="stroke:#181818;stroke-width:1;" x1="714.3018" x2="714.3018" y1="885.1328" y2="907.1328"/><polygon fill="#181818" points="710.3018,897.1328,714.3018,907.1328,718.3018,897.1328,714.3018,901.1328" style="stroke:#181818;stroke-width:1;"/><line style="stroke:#181818;stroke-width:1;" x1="451.8477" x2="451.8477" y1="1137.2871" y2="1155.2871"/><line style="stroke:#181818;stroke-width:1;" x1="451.8477" x2="571.0747" y1="1155.2871" y2="1155.2871"/><polygon fill="#181818" points="561.0747,1151.2871,571.0747,1155.2871,561.0747,1159.2871,565.0747,1155.2871" style="stroke:#181818;stroke-width:1;"/><line style="stroke:#181818;stroke-width:1;" x1="714.3018" x2="714.3018" y1="959.0547" y2="1155.2871"/><line style="stroke:#181818;stroke-width:1;" x1="714.3018" x2="595.0747" y1="1155.2871" y2="1155.2871"/><polygon fill="#181818" points="605.0747,1151.2871,595.0747,1155.2871,605.0747,1159.2871,601.0747,1155.2871" style="stroke:#181818;stroke-width:1;"/><line style="stroke:#181818;stroke-width:1;" x1="583.0747" x2="583.0747" y1="853.1328" y2="873.1328"/><polygon fill="#181818" points="579.0747,863.1328,583.0747,873.1328,587.0747,863.1328,583.0747,867.1328" style="stroke:#181818;stroke-width:1;"/><line style="stroke:#181818;stroke-width:1;" x1="583.0747" x2="583.0747" y1="1167.2871" y2="1199.2871"/><polygon fill="#181818" points="579.0747,1189.2871,583.0747,1199.2871,587.0747,1189.2871,583.0747,1193.2871" style="stroke:#181818;stroke-width:1;"/><line style="stroke:#181818;stroke-width:1;" x1="148.0605" x2="148.0605" y1="768.5508" y2="966.7832"/><polygon fill="#181818" points="144.0605,956.7832,148.0605,966.7832,152.0605,956.7832,148.0605,960.7832" style="stroke:#181818;stroke-width:1;"/><line style="stroke:#181818;stroke-width:1;" x1="583.0747" x2="583.0747" y1="768.5508" y2="817.1719"/><polygon fill="#181818" points="579.0747,807.1719,583.0747,817.1719,587.0747,807.1719,583.0747,811.1719" style="stroke:#181818;stroke-width:1;"/><!--SRC=[ZLJDSjD03BxxAJGzCCwXqr8uDGScJPfIfZ-f4yg5Y-nL4asTNREx3cqwVG3U0eO3mu6dy8kXRD8uIIbJdsojFkqdVP_isUS4tRoyDIEB4uHTQ5l6wbVrqu0Yw8tl76UC6WZwh3DhDCyMnr7aF5eVHOSjDM7DpbjKnWBfAIFqBli3s2iUuQuPHOLaisUZOQVLEuKJzFGLxtRWFW9v3g_9yf0pj30mDwJXmwT1Cvpm4E95wBhwaRCoxnhWn_8PNmYDHiW95HBoncefy7R_DNpKMFgniJmZrLpbE6-Ay46v8uZxF5d3rmmI8rE9Mvtpquj63PuJgRv1QFSP3jiyta3Ns9IL8jtSI5eHUOPCA7IiCvIxnb9AXeThQlJ9JZcZkYPfnSEeVdlOcFSJ8CG95Rdq2gr6hG3ATEKk9JewK0OwWyjQWaw8BYLmBz1W7uvGGK9VIdB-XHASM9mAM2DqZk3CP9X3_FvWJOF3NfdcGQFZAMblG1j8C4tPdrz1t6LBkwZLhanzH7uTjo9s8EPeMnBtBNsn6jZGs9jecUmAenLPG0ERzexNyClweQCv6724h4DiRVWhUg-sL-XnyWkn5_raOneXLD-XopbkUY-fVWVD77Hupg_wCoMkbNZgdxRHhfn85oie73N0KaOf0ONxDbsvEN-5KEEQpvLk5OLXxITI3VhNxV_NR_bIJ3QJApocb2Eqhv9-SsiHvfQ2FN6E_81e0YdoxVQAdPDsE9B3-Ru6kYHUEoFlXT9LIILzrh4fmGi7EJTJdFEZnhyMvg4MKO8GNF0N]--></g></svg>