<svg xmlns="http://www.w3.org/2000/svg" xmlns:xlink="http://www.w3.org/1999/xlink" contentStyleType="text/css" data-diagram-type="CLASS" height="610px" preserveAspectRatio="none" style="width:378px;height:610px;background:#FFFFFF;" version="1.1" viewBox="0 0 378 610" width="378px" zoomAndPan="magnify"><title>Logical View</title><defs/><g><g class="title" data-source-line="1"><text fill="#000000" font-family="sans-serif" font-size="14" font-weight="bold" lengthAdjust="spacing" textLength="84.7998" x="140.0273" y="25.1074">Logical View</text></g><!--class Physician--><g class="entity" data-entity="Physician" data-source-line="8" data-uid="ent0002" id="entity_Physician"><rect fill="#F1F1F1" height="133.1055" rx="2.5" ry="2.5" style="stroke:#181818;stroke-width:0.5;" width="172.6855" x="7" y="46.6211"/><ellipse cx="59.1343" cy="62.6211" fill="#ADD1B2" rx="11" ry="11" style="stroke:#181818;stroke-width:1;"/><path d="M61.8999,58.4961 Q62.0562,58.2773 62.2437,58.168 Q62.4312,58.0586 62.6499,58.0586 Q63.0249,58.0586 63.2593,58.3242 Q63.4937,58.5742 63.4937,59.1836 L63.4937,60.6367 Q63.4937,61.2461 63.2593,61.5117 Q63.0249,61.7773 62.6499,61.7773 Q62.3062,61.7773 62.103,61.5742 Q61.8999,61.3867 61.7905,60.8711 Q61.7437,60.5117 61.5562,60.3242 Q61.228,59.9492 60.6187,59.7305 Q60.0093,59.5117 59.3843,59.5117 Q58.6187,59.5117 57.978,59.8398 Q57.353,60.168 56.853,60.918 Q56.3687,61.668 56.3687,62.6992 L56.3687,63.793 Q56.3687,65.0273 57.2593,65.8555 Q58.1499,66.668 59.7437,66.668 Q60.6812,66.668 61.3374,66.418 Q61.728,66.2617 62.1499,65.8242 Q62.4155,65.5586 62.5562,65.4805 Q62.7124,65.4023 62.9155,65.4023 Q63.2437,65.4023 63.4937,65.668 Q63.7593,65.918 63.7593,66.2617 Q63.7593,66.6055 63.4155,67.0117 Q62.9155,67.5898 62.1187,67.918 Q61.0405,68.3711 59.7437,68.3711 Q58.228,68.3711 57.0249,67.7461 Q56.0405,67.2461 55.353,66.1836 Q54.6655,65.1055 54.6655,63.8242 L54.6655,62.668 Q54.6655,61.3398 55.2749,60.1992 Q55.8999,59.043 56.9937,58.4336 Q58.0874,57.8086 59.3218,57.8086 Q60.0562,57.8086 60.6968,57.9805 Q61.353,58.1367 61.8999,58.4961 Z " fill="#000000"/><text fill="#000000" font-family="sans-serif" font-size="14" lengthAdjust="spacing" textLength="59.917" x="79.6343" y="68.418">Physician</text><line style="stroke:#181818;stroke-width:0.5;" x1="8" x2="178.6855" y1="78.6211" y2="78.6211"/><text fill="#000000" font-family="sans-serif" font-size="14" lengthAdjust="spacing" textLength="57.9961" x="13" y="97.7285">+id: Long</text><text fill="#000000" font-family="sans-serif" font-size="14" lengthAdjust="spacing" textLength="160.6855" x="13" y="116.3496">+physicianNumber: String</text><text fill="#000000" font-family="sans-serif" font-size="14" lengthAdjust="spacing" textLength="87.5479" x="13" y="134.9707">+name: String</text><text fill="#000000" font-family="sans-serif" font-size="14" lengthAdjust="spacing" textLength="106.9961" x="13" y="153.5918">+specialty: String</text><text fill="#000000" font-family="sans-serif" font-size="14" lengthAdjust="spacing" textLength="121.0166" x="13" y="172.2129">+contactInfo: String</text></g><!--class Patient--><g class="entity" data-entity="Patient" data-source-line="16" data-uid="ent0003" id="entity_Patient"><rect fill="#F1F1F1" height="114.4844" rx="2.5" ry="2.5" style="stroke:#181818;stroke-width:0.5;" width="156.3545" x="215.5" y="56.1211"/><ellipse cx="267.6343" cy="72.1211" fill="#ADD1B2" rx="11" ry="11" style="stroke:#181818;stroke-width:1;"/><path d="M270.3999,67.9961 Q270.5562,67.7773 270.7437,67.668 Q270.9312,67.5586 271.1499,67.5586 Q271.5249,67.5586 271.7593,67.8242 Q271.9937,68.0742 271.9937,68.6836 L271.9937,70.1367 Q271.9937,70.7461 271.7593,71.0117 Q271.5249,71.2773 271.1499,71.2773 Q270.8062,71.2773 270.603,71.0742 Q270.3999,70.8867 270.2905,70.3711 Q270.2437,70.0117 270.0562,69.8242 Q269.728,69.4492 269.1187,69.2305 Q268.5093,69.0117 267.8843,69.0117 Q267.1187,69.0117 266.478,69.3398 Q265.853,69.668 265.353,70.418 Q264.8687,71.168 264.8687,72.1992 L264.8687,73.293 Q264.8687,74.5273 265.7593,75.3555 Q266.6499,76.168 268.2437,76.168 Q269.1812,76.168 269.8374,75.918 Q270.228,75.7617 270.6499,75.3242 Q270.9155,75.0586 271.0562,74.9805 Q271.2124,74.9023 271.4155,74.9023 Q271.7437,74.9023 271.9937,75.168 Q272.2593,75.418 272.2593,75.7617 Q272.2593,76.1055 271.9155,76.5117 Q271.4155,77.0898 270.6187,77.418 Q269.5405,77.8711 268.2437,77.8711 Q266.728,77.8711 265.5249,77.2461 Q264.5405,76.7461 263.853,75.6836 Q263.1655,74.6055 263.1655,73.3242 L263.1655,72.168 Q263.1655,70.8398 263.7749,69.6992 Q264.3999,68.543 265.4937,67.9336 Q266.5874,67.3086 267.8218,67.3086 Q268.5562,67.3086 269.1968,67.4805 Q269.853,67.6367 270.3999,67.9961 Z " fill="#000000"/><text fill="#000000" font-family="sans-serif" font-size="14" lengthAdjust="spacing" textLength="43.5859" x="288.1343" y="77.918">Patient</text><line style="stroke:#181818;stroke-width:0.5;" x1="216.5" x2="370.8545" y1="88.1211" y2="88.1211"/><text fill="#000000" font-family="sans-serif" font-size="14" lengthAdjust="spacing" textLength="57.9961" x="221.5" y="107.2285">+id: Long</text><text fill="#000000" font-family="sans-serif" font-size="14" lengthAdjust="spacing" textLength="144.3545" x="221.5" y="125.8496">+patientNumber: String</text><text fill="#000000" font-family="sans-serif" font-size="14" lengthAdjust="spacing" textLength="87.5479" x="221.5" y="144.4707">+name: String</text><text fill="#000000" font-family="sans-serif" font-size="14" lengthAdjust="spacing" textLength="141.251" x="221.5" y="163.0918">+phoneNumber: String</text></g><!--class Appointment--><g class="entity" data-entity="Appointment" data-source-line="23" data-uid="ent0004" id="entity_Appointment"><rect fill="#F1F1F1" height="207.5898" rx="2.5" ry="2.5" style="stroke:#181818;stroke-width:0.5;" width="238.8574" x="74" y="239.6211"/><ellipse cx="149.8755" cy="255.6211" fill="#ADD1B2" rx="11" ry="11" style="stroke:#181818;stroke-width:1;"/><path d="M152.6411,251.4961 Q152.7974,251.2773 152.9849,251.168 Q153.1724,251.0586 153.3911,251.0586 Q153.7661,251.0586 154.0005,251.3242 Q154.2349,251.5742 154.2349,252.1836 L154.2349,253.6367 Q154.2349,254.2461 154.0005,254.5117 Q153.7661,254.7773 153.3911,254.7773 Q153.0474,254.7773 152.8442,254.5742 Q152.6411,254.3867 152.5317,253.8711 Q152.4849,253.5117 152.2974,253.3242 Q151.9692,252.9492 151.3599,252.7305 Q150.7505,252.5117 150.1255,252.5117 Q149.3599,252.5117 148.7192,252.8398 Q148.0942,253.168 147.5942,253.918 Q147.1099,254.668 147.1099,255.6992 L147.1099,256.793 Q147.1099,258.0273 148.0005,258.8555 Q148.8911,259.668 150.4849,259.668 Q151.4224,259.668 152.0786,259.418 Q152.4692,259.2617 152.8911,258.8242 Q153.1567,258.5586 153.2974,258.4805 Q153.4536,258.4023 153.6567,258.4023 Q153.9849,258.4023 154.2349,258.668 Q154.5005,258.918 154.5005,259.2617 Q154.5005,259.6055 154.1567,260.0117 Q153.6567,260.5898 152.8599,260.918 Q151.7817,261.3711 150.4849,261.3711 Q148.9692,261.3711 147.7661,260.7461 Q146.7817,260.2461 146.0942,259.1836 Q145.4067,258.1055 145.4067,256.8242 L145.4067,255.668 Q145.4067,254.3398 146.0161,253.1992 Q146.6411,252.043 147.7349,251.4336 Q148.8286,250.8086 150.063,250.8086 Q150.7974,250.8086 151.438,250.9805 Q152.0942,251.1367 152.6411,251.4961 Z " fill="#000000"/><text fill="#000000" font-family="sans-serif" font-size="14" lengthAdjust="spacing" textLength="78.6064" x="170.3755" y="261.418">Appointment</text><line style="stroke:#181818;stroke-width:0.5;" x1="75" x2="311.8574" y1="271.6211" y2="271.6211"/><text fill="#000000" font-family="sans-serif" font-size="14" lengthAdjust="spacing" textLength="156.7959" x="80" y="290.7285">+String physicianNumber</text><text fill="#000000" font-family="sans-serif" font-size="14" lengthAdjust="spacing" textLength="140.4648" x="80" y="309.3496">+String patientNumber</text><text fill="#000000" font-family="sans-serif" font-size="14" lengthAdjust="spacing" textLength="226.8574" x="80" y="327.9707">+ConsultationType consultationType</text><text fill="#000000" font-family="sans-serif" font-size="14" lengthAdjust="spacing" textLength="167.7129" x="80" y="346.5918">+AppointmentStatus status</text><text fill="#000000" font-family="sans-serif" font-size="14" lengthAdjust="spacing" textLength="164.5547" x="80" y="365.2129">+LocalDateTime startTime</text><text fill="#000000" font-family="sans-serif" font-size="14" lengthAdjust="spacing" textLength="160.6855" x="80" y="383.834">+LocalDateTime endTime</text><text fill="#000000" font-family="sans-serif" font-size="14" lengthAdjust="spacing" textLength="3.8896" x="80" y="402.4551">&#160;</text><text fill="#000000" font-family="sans-serif" font-size="14" lengthAdjust="spacing" textLength="160.6855" x="80" y="421.0762">+physicianNumber: String</text><text fill="#000000" font-family="sans-serif" font-size="14" lengthAdjust="spacing" textLength="144.3545" x="80" y="439.6973">+patientNumber: String</text></g><!--class AppointmentStatus--><g class="entity" data-entity="AppointmentStatus" data-source-line="35" data-uid="ent0005" id="entity_AppointmentStatus"><rect fill="#F1F1F1" height="95.8633" rx="2.5" ry="2.5" style="stroke:#181818;stroke-width:0.5;" width="150.2959" x="28.5" y="507.6211"/><ellipse cx="43.5" cy="523.6211" fill="#EB937F" rx="11" ry="11" style="stroke:#181818;stroke-width:1;"/><path d="M42.3594,524.418 L42.3594,526.918 L46.6875,526.918 L46.6875,525.9961 Q46.6875,525.3867 46.9219,525.1211 Q47.1719,524.8555 47.5469,524.8555 Q47.9219,524.8555 48.1563,525.1211 Q48.3906,525.3867 48.3906,525.9961 L48.3906,528.6211 L40.3906,528.6211 Q39.7656,528.6211 39.5,528.3867 Q39.25,528.1523 39.25,527.7617 Q39.25,527.3867 39.5156,527.1523 Q39.7813,526.918 40.3906,526.918 L40.6563,526.918 L40.6563,520.2617 L40.3906,520.2617 Q39.7656,520.2617 39.5,520.0273 Q39.25,519.793 39.25,519.4023 Q39.25,519.0273 39.5,518.793 Q39.7656,518.5586 40.3906,518.5586 L48.0156,518.5586 L48.0156,521.1523 Q48.0156,521.7617 47.7813,522.0273 Q47.5625,522.2773 47.1719,522.2773 Q46.7969,522.2773 46.5625,522.0273 Q46.3281,521.7617 46.3281,521.1523 L46.3281,520.2617 L42.3594,520.2617 L42.3594,522.7148 L43.8438,522.7148 Q43.8438,522.0586 43.9688,521.8711 Q44.2344,521.4648 44.7031,521.4648 Q45.0781,521.4648 45.3125,521.7305 Q45.5469,521.9805 45.5469,522.5898 L45.5469,524.5586 Q45.5469,525.1055 45.4219,525.293 Q45.1563,525.6836 44.7031,525.6836 Q44.2344,525.6836 43.9688,525.2773 Q43.8438,525.0898 43.8438,524.418 L42.3594,524.418 Z " fill="#000000"/><text fill="#000000" font-family="sans-serif" font-size="14" lengthAdjust="spacing" textLength="118.2959" x="57.5" y="529.418">AppointmentStatus</text><line style="stroke:#181818;stroke-width:0.5;" x1="29.5" x2="177.7959" y1="539.6211" y2="539.6211"/><text fill="#000000" font-family="sans-serif" font-size="14" lengthAdjust="spacing" textLength="86.3516" x="34.5" y="558.7285">SCHEDULED</text><text fill="#000000" font-family="sans-serif" font-size="14" lengthAdjust="spacing" textLength="87.124" x="34.5" y="577.3496">COMPLETED</text><text fill="#000000" font-family="sans-serif" font-size="14" lengthAdjust="spacing" textLength="84.0273" x="34.5" y="595.9707">CANCELLED</text></g><!--class ConsultationType--><g class="entity" data-entity="ConsultationType" data-source-line="41" data-uid="ent0006" id="entity_ConsultationType"><rect fill="#F1F1F1" height="77.2422" rx="2.5" ry="2.5" style="stroke:#181818;stroke-width:0.5;" width="140.9512" x="214" y="517.1211"/><ellipse cx="229" cy="533.1211" fill="#EB937F" rx="11" ry="11" style="stroke:#181818;stroke-width:1;"/><path d="M227.8594,533.918 L227.8594,536.418 L232.1875,536.418 L232.1875,535.4961 Q232.1875,534.8867 232.4219,534.6211 Q232.6719,534.3555 233.0469,534.3555 Q233.4219,534.3555 233.6563,534.6211 Q233.8906,534.8867 233.8906,535.4961 L233.8906,538.1211 L225.8906,538.1211 Q225.2656,538.1211 225,537.8867 Q224.75,537.6523 224.75,537.2617 Q224.75,536.8867 225.0156,536.6523 Q225.2813,536.418 225.8906,536.418 L226.1563,536.418 L226.1563,529.7617 L225.8906,529.7617 Q225.2656,529.7617 225,529.5273 Q224.75,529.293 224.75,528.9023 Q224.75,528.5273 225,528.293 Q225.2656,528.0586 225.8906,528.0586 L233.5156,528.0586 L233.5156,530.6523 Q233.5156,531.2617 233.2813,531.5273 Q233.0625,531.7773 232.6719,531.7773 Q232.2969,531.7773 232.0625,531.5273 Q231.8281,531.2617 231.8281,530.6523 L231.8281,529.7617 L227.8594,529.7617 L227.8594,532.2148 L229.3438,532.2148 Q229.3438,531.5586 229.4688,531.3711 Q229.7344,530.9648 230.2031,530.9648 Q230.5781,530.9648 230.8125,531.2305 Q231.0469,531.4805 231.0469,532.0898 L231.0469,534.0586 Q231.0469,534.6055 230.9219,534.793 Q230.6563,535.1836 230.2031,535.1836 Q229.7344,535.1836 229.4688,534.7773 Q229.3438,534.5898 229.3438,533.918 L227.8594,533.918 Z " fill="#000000"/><text fill="#000000" font-family="sans-serif" font-size="14" lengthAdjust="spacing" textLength="108.9512" x="243" y="538.918">ConsultationType</text><line style="stroke:#181818;stroke-width:0.5;" x1="215" x2="353.9512" y1="549.1211" y2="549.1211"/><text fill="#000000" font-family="sans-serif" font-size="14" lengthAdjust="spacing" textLength="80.9102" x="220" y="568.2285">IN_PERSON</text><text fill="#000000" font-family="sans-serif" font-size="14" lengthAdjust="spacing" textLength="59.8896" x="220" y="586.8496">REMOTE</text></g><!--link Physician to Appointment--><g class="link" data-entity-1="Physician" data-entity-2="Appointment" data-source-line="46" data-uid="lnk7" id="link_Physician_Appointment"><path codeLine="46" d="M127,179.7911 C127,198.4011 127,219.0911 127,239.3211" fill="none" id="Physician-Appointment" style="stroke:#181818;stroke-width:1;"/><text fill="#000000" font-family="sans-serif" font-size="13" lengthAdjust="spacing" textLength="29.6182" x="128" y="205.5794">(has)</text><text fill="#000000" font-family="sans-serif" font-size="13" lengthAdjust="spacing" textLength="7.23" x="123.1218" y="201.5809">1</text><text fill="#000000" font-family="sans-serif" font-size="13" lengthAdjust="spacing" textLength="19.5127" x="102.6793" y="228.4428">0..*</text></g><!--link Patient to Appointment--><g class="link" data-entity-1="Patient" data-entity-2="Appointment" data-source-line="48" data-uid="lnk8" id="link_Patient_Appointment"><path codeLine="48" d="M264.25,170.3911 C264.25,191.3311 264.25,215.7111 264.25,239.4611" fill="none" id="Patient-Appointment" style="stroke:#181818;stroke-width:1;"/><text fill="#000000" font-family="sans-serif" font-size="13" lengthAdjust="spacing" textLength="29.6182" x="265.25" y="200.9594">(has)</text><text fill="#000000" font-family="sans-serif" font-size="13" lengthAdjust="spacing" textLength="7.23" x="253.0459" y="192.8338">1</text><text fill="#000000" font-family="sans-serif" font-size="13" lengthAdjust="spacing" textLength="19.5127" x="249.7721" y="228.2417">0..*</text></g><!--reverse link Appointment to AppointmentStatus--><g class="link" data-entity-1="Appointment" data-entity-2="AppointmentStatus" data-source-line="50" data-uid="lnk9" id="link_Appointment_AppointmentStatus"><path codeLine="50" d="M126.25,459.7611 C126.25,480.7011 126.25,489.7411 126.25,507.6011" fill="none" id="Appointment-backto-AppointmentStatus" style="stroke:#181818;stroke-width:1;"/><polygon fill="#181818" points="126.25,447.7611,122.25,453.7611,126.25,459.7611,130.25,453.7611,126.25,447.7611" style="stroke:#181818;stroke-width:1;"/><polygon fill="#000000" points="89.25,473.3266,92.1889,464.2815,86.3111,464.2815,89.25,473.3266" style="stroke:#000000;stroke-width:1;"/><text fill="#000000" font-family="sans-serif" font-size="13" lengthAdjust="spacing" textLength="27.46" x="98.25" y="473.7094">uses</text><text fill="#000000" font-family="sans-serif" font-size="13" lengthAdjust="spacing" textLength="7.23" x="122.0725" y="496.3595">1</text></g><!--reverse link Appointment to ConsultationType--><g class="link" data-entity-1="Appointment" data-entity-2="ConsultationType" data-source-line="51" data-uid="lnk10" id="link_Appointment_ConsultationType"><path codeLine="51" d="M263.5,459.7611 C263.5,484.4711 263.5,497.3211 263.5,516.9211" fill="none" id="Appointment-backto-ConsultationType" style="stroke:#181818;stroke-width:1;"/><polygon fill="#181818" points="263.5,447.7611,259.5,453.7611,263.5,459.7611,267.5,453.7611,263.5,447.7611" style="stroke:#181818;stroke-width:1;"/><polygon fill="#000000" points="226.5,477.9866,229.4389,468.9415,223.5611,468.9415,226.5,477.9866" style="stroke:#000000;stroke-width:1;"/><text fill="#000000" font-family="sans-serif" font-size="13" lengthAdjust="spacing" textLength="27.46" x="235.5" y="478.3694">uses</text><text fill="#000000" font-family="sans-serif" font-size="13" lengthAdjust="spacing" textLength="7.23" x="252.313" y="505.8411">1</text></g><!--SRC=[ZPB1ReCm38RlF8N5QUlKghroc5HHf5MYj2firocbNeb64aIC9ZRjtPV0og15MayO_v_pntQ8KuuGgXDFMGul73ySHxzpMR2I2KXpflMIgEI7Yd2TAXdpJuHv3ycvHAeB15LIffoC7n5G55I3G770KZkEqnm3kwpMFELCmfS3y03yw1bZUMf-YhCOLRRAWzYO_cgI2HmaT846pQaUPCtjYAMqbc-gotztvemuIXgrRgLRZ8jCIRm0EujbKIWkIPnjJ46BN3OtrFhkhU8hgQkSZA1aOaURNYHQhESN6wtIe9jFguRAB7J521Ckq2ebsMXCH7bif7yNCJufCm2KbO3h-zWfnFvJi7eEWvM9_Urc5mP96oyZFmXj_bn_rROjNqUlks0VRoCJxuFDDWai__UKt8KBqocuyzbiuWvMuC5TnlIzWNzNVmFQJquikt17slAWqgZXSHI_wgAZVm00]--></g></svg>