<svg xmlns="http://www.w3.org/2000/svg" xmlns:xlink="http://www.w3.org/1999/xlink" contentStyleType="text/css" data-diagram-type="CLASS" height="496px" preserveAspectRatio="none" style="width:992px;height:496px;background:#FFFFFF;" version="1.1" viewBox="0 0 992 496" width="992px" zoomAndPan="magnify"><title>Vista L&#243;gica - Modelo de Dom&#237;nio (Microservi&#231;os &amp; CQRS)</title><defs/><g><g class="title" data-source-line="5"><text fill="#000000" font-family="Verdana" font-size="17.6" font-weight="bold" lengthAdjust="spacing" textLength="570.1609" x="207.498" y="29.6945">Vista L&#243;gica - Modelo de Dom&#237;nio (Microservi&#231;os &amp; CQRS)</text></g><!--cluster Physician Context--><g class="cluster" data-entity="Physician Context" data-source-line="7" data-uid="ent0002" id="cluster_Physician Context"><path d="M180,46.9898 L293.3633,46.9898 A3,3 0 0 1 295.3633,48.9898 L300.9633,65.4016 L398.4,65.4016 A2,2 0 0 1 400.4,67.4016 L400.4,175.3898 A2,2 0 0 1 398.4,177.3898 L180,177.3898 A2,2 0 0 1 178,175.3898 L178,48.9898 A2,2 0 0 1 180,46.9898" fill="#FFFFFF" style="stroke:#000000;stroke-width:0.8;"/><line style="stroke:#000000;stroke-width:0.8;" x1="178" x2="300.9633" y1="65.4016" y2="65.4016"/><text fill="#000000" font-family="Verdana" font-size="11.2" font-weight="bold" lengthAdjust="spacing" textLength="112.5633" x="181.2" y="59.85">Physician Context</text></g><!--cluster Patient Context--><g class="cluster" data-entity="Patient Context" data-source-line="16" data-uid="ent0004" id="cluster_Patient Context"><path d="M478.4,53.7898 L577.0742,53.7898 A3,3 0 0 1 579.0742,55.7898 L584.6742,72.2016 L684,72.2016 A2,2 0 0 1 686,74.2016 L686,168.5898 A2,2 0 0 1 684,170.5898 L478.4,170.5898 A2,2 0 0 1 476.4,168.5898 L476.4,55.7898 A2,2 0 0 1 478.4,53.7898" fill="#FFFFFF" style="stroke:#000000;stroke-width:0.8;"/><line style="stroke:#000000;stroke-width:0.8;" x1="476.4" x2="584.6742" y1="72.2016" y2="72.2016"/><text fill="#000000" font-family="Verdana" font-size="11.2" font-weight="bold" lengthAdjust="spacing" textLength="97.8742" x="479.6" y="66.65">Patient Context</text></g><!--cluster Appointment Context--><g class="cluster" data-entity="Appointment Context" data-source-line="24" data-uid="ent0006" id="cluster_Appointment Context"><path d="M180,196.5898 L314.8609,196.5898 A3,3 0 0 1 316.8609,198.5898 L322.4609,215.0016 L815.2,215.0016 A2,2 0 0 1 817.2,217.0016 L817.2,488.9898 A2,2 0 0 1 815.2,490.9898 L180,490.9898 A2,2 0 0 1 178,488.9898 L178,198.5898 A2,2 0 0 1 180,196.5898" fill="#FFFFFF" style="stroke:#000000;stroke-width:0.8;"/><line style="stroke:#000000;stroke-width:0.8;" x1="178" x2="322.4609" y1="215.0016" y2="215.0016"/><text fill="#000000" font-family="Verdana" font-size="11.2" font-weight="bold" lengthAdjust="spacing" textLength="134.0609" x="181.2" y="209.45">Appointment Context</text></g><!--class Physician--><g class="entity" data-entity="Physician" data-source-line="8" data-uid="ent0003" id="entity_Physician"><rect fill="#FFFFFF" height="88.8586" rx="2" ry="2" style="stroke:#000000;stroke-width:0.8;" width="196.1523" x="191.2" y="75.7898"/><text fill="#000000" font-family="Verdana" font-size="11.2" lengthAdjust="spacing" textLength="52.1008" x="263.2258" y="91.05">Physician</text><line style="stroke:#000000;stroke-width:0.8;" x1="192" x2="386.5523" y1="97.4016" y2="97.4016"/><ellipse cx="200" cy="108.6074" fill="none" rx="2.4" ry="2.4" style="stroke:#000000;stroke-width:0.8;"/><text fill="#000000" font-family="Verdana" font-size="11.2" lengthAdjust="spacing" textLength="176.9523" x="205.6" y="111.8617">physicianNumber : String &#171;PK&#187;</text><ellipse cx="200" cy="122.2191" fill="none" rx="2.4" ry="2.4" style="stroke:#000000;stroke-width:0.8;"/><text fill="#000000" font-family="Verdana" font-size="11.2" lengthAdjust="spacing" textLength="78.3289" x="205.6" y="125.4734">name : String</text><ellipse cx="200" cy="135.8309" fill="none" rx="2.4" ry="2.4" style="stroke:#000000;stroke-width:0.8;"/><text fill="#000000" font-family="Verdana" font-size="11.2" lengthAdjust="spacing" textLength="96.1844" x="205.6" y="139.0852">specialty : String</text><ellipse cx="200" cy="149.4426" fill="none" rx="2.4" ry="2.4" style="stroke:#000000;stroke-width:0.8;"/><text fill="#000000" font-family="Verdana" font-size="11.2" lengthAdjust="spacing" textLength="110.5945" x="205.6" y="152.6969">contactInfo : String</text><line style="stroke:#000000;stroke-width:0.8;" x1="192" x2="386.5523" y1="158.2484" y2="158.2484"/></g><!--class Patient--><g class="entity" data-entity="Patient" data-source-line="17" data-uid="ent0005" id="entity_Patient"><rect fill="#FFFFFF" height="75.2469" rx="2" ry="2" style="stroke:#000000;stroke-width:0.8;" width="183.1914" x="489.6" y="82.5898"/><text fill="#000000" font-family="Verdana" font-size="11.2" lengthAdjust="spacing" textLength="39.1398" x="561.6258" y="97.85">Patient</text><line style="stroke:#000000;stroke-width:0.8;" x1="490.4" x2="671.9914" y1="104.2016" y2="104.2016"/><ellipse cx="498.4" cy="115.4074" fill="none" rx="2.4" ry="2.4" style="stroke:#000000;stroke-width:0.8;"/><text fill="#000000" font-family="Verdana" font-size="11.2" lengthAdjust="spacing" textLength="163.9914" x="504" y="118.6617">patientNumber : String &#171;PK&#187;</text><ellipse cx="498.4" cy="129.0191" fill="none" rx="2.4" ry="2.4" style="stroke:#000000;stroke-width:0.8;"/><text fill="#000000" font-family="Verdana" font-size="11.2" lengthAdjust="spacing" textLength="78.3289" x="504" y="132.2734">name : String</text><ellipse cx="498.4" cy="142.6309" fill="none" rx="2.4" ry="2.4" style="stroke:#000000;stroke-width:0.8;"/><text fill="#000000" font-family="Verdana" font-size="11.2" lengthAdjust="spacing" textLength="126.3609" x="504" y="145.8852">phoneNumber : String</text><line style="stroke:#000000;stroke-width:0.8;" x1="490.4" x2="671.9914" y1="151.4367" y2="151.4367"/></g><!--class Appointment--><g class="entity" data-entity="Appointment" data-source-line="25" data-uid="ent0007" id="entity_Appointment"><rect fill="#FFFFFF" height="129.6938" rx="2" ry="2" style="stroke:#000000;stroke-width:0.8;" width="214.9484" x="399.2" y="225.3898"/><text fill="#000000" font-family="Verdana" font-size="11.2" lengthAdjust="spacing" textLength="72.0508" x="470.6488" y="240.65">Appointment</text><line style="stroke:#000000;stroke-width:0.8;" x1="400" x2="613.3484" y1="247.0016" y2="247.0016"/><ellipse cx="408" cy="258.2074" fill="none" rx="2.4" ry="2.4" style="stroke:#000000;stroke-width:0.8;"/><text fill="#000000" font-family="Verdana" font-size="11.2" lengthAdjust="spacing" textLength="195.7484" x="413.6" y="261.4617">appointmentNumber : String &#171;PK&#187;</text><ellipse cx="408" cy="271.8191" fill="none" rx="2.4" ry="2.4" style="stroke:#000000;stroke-width:0.8;"/><text fill="#000000" font-family="Verdana" font-size="11.2" lengthAdjust="spacing" textLength="149.3188" x="413.6" y="275.0734">startTime : LocalDateTime</text><ellipse cx="408" cy="285.4309" fill="none" rx="2.4" ry="2.4" style="stroke:#000000;stroke-width:0.8;"/><text fill="#000000" font-family="Verdana" font-size="11.2" lengthAdjust="spacing" textLength="143.8883" x="413.6" y="288.6852">endTime : LocalDateTime</text><ellipse cx="408" cy="299.0426" fill="none" rx="2.4" ry="2.4" style="stroke:#000000;stroke-width:0.8;"/><text fill="#000000" font-family="Verdana" font-size="11.2" lengthAdjust="spacing" textLength="155.4547" x="413.6" y="302.2969">status : AppointmentStatus</text><ellipse cx="408" cy="312.6543" fill="none" rx="2.4" ry="2.4" style="stroke:#000000;stroke-width:0.8;"/><text fill="#000000" font-family="Verdana" font-size="11.2" lengthAdjust="spacing" textLength="135.0453" x="413.6" y="315.9086">type : ConsultationType</text><line style="stroke:#000000;stroke-width:0.8;" x1="400" x2="613.3484" y1="321.4602" y2="321.4602"/><ellipse cx="408" cy="332.666" fill="none" rx="2.4" ry="2.4" style="stroke:#000000;stroke-width:0.8;"/><text fill="#000000" font-family="Verdana" font-size="11.2" lengthAdjust="spacing" textLength="176.6352" x="413.6" y="335.9203">physicianNumber : String &#171;FK&#187;</text><ellipse cx="408" cy="346.2777" fill="none" rx="2.4" ry="2.4" style="stroke:#000000;stroke-width:0.8;"/><text fill="#000000" font-family="Verdana" font-size="11.2" lengthAdjust="spacing" textLength="163.6742" x="413.6" y="349.532">patientNumber : String &#171;FK&#187;</text></g><!--class AppointmentStatus--><g class="entity" data-entity="AppointmentStatus" data-source-line="36" data-uid="ent0008" id="entity_AppointmentStatus"><rect fill="#FFFFFF" height="75.2469" rx="2" ry="2" style="stroke:#000000;stroke-width:0.8;" width="112.9828" x="382.4" y="402.9898"/><text fill="#000000" font-family="Verdana" font-size="11.2" lengthAdjust="spacing" textLength="108.1828" x="384.8" y="418.25">AppointmentStatus</text><line style="stroke:#000000;stroke-width:0.8;" x1="383.2" x2="494.5828" y1="424.6016" y2="424.6016"/><text fill="#000000" font-family="Verdana" font-size="11.2" lengthAdjust="spacing" textLength="69.7484" x="387.2" y="439.0617">SCHEDULED</text><text fill="#000000" font-family="Verdana" font-size="11.2" lengthAdjust="spacing" textLength="32.9055" x="387.2" y="452.6734">DONE</text><text fill="#000000" font-family="Verdana" font-size="11.2" lengthAdjust="spacing" textLength="66.9375" x="387.2" y="466.2852">CANCELLED</text><line style="stroke:#000000;stroke-width:0.8;" x1="383.2" x2="494.5828" y1="471.8367" y2="471.8367"/></g><!--class ConsultationType--><g class="entity" data-entity="ConsultationType" data-source-line="42" data-uid="ent0009" id="entity_ConsultationType"><rect fill="#FFFFFF" height="61.6352" rx="2" ry="2" style="stroke:#000000;stroke-width:0.8;" width="102.193" x="523.6" y="409.7898"/><text fill="#000000" font-family="Verdana" font-size="11.2" lengthAdjust="spacing" textLength="97.393" x="526" y="425.05">ConsultationType</text><line style="stroke:#000000;stroke-width:0.8;" x1="524.4" x2="624.993" y1="431.4016" y2="431.4016"/><text fill="#000000" font-family="Verdana" font-size="11.2" lengthAdjust="spacing" textLength="66.6859" x="528.4" y="445.8617">IN_PERSON</text><text fill="#000000" font-family="Verdana" font-size="11.2" lengthAdjust="spacing" textLength="47.1078" x="528.4" y="459.4734">REMOTE</text><line style="stroke:#000000;stroke-width:0.8;" x1="524.4" x2="624.993" y1="465.025" y2="465.025"/></g><!--class ExtPhys--><g class="entity" data-entity="ExtPhys" data-source-line="48" data-uid="ent0010" id="entity_ExtPhys"><rect fill="#FFFFFF" height="73.3023" rx="2" ry="2" style="stroke:#000000;stroke-width:0.8;" width="163.2633" x="190.8" y="403.7898"/><text fill="#000000" font-family="Verdana" font-size="9.6" font-style="italic" lengthAdjust="spacing" textLength="60.4313" x="242.216" y="417.4414">&#171;Projection&#187;</text><text fill="#000000" font-family="Verdana" font-size="11.2" lengthAdjust="spacing" textLength="98.5633" x="223.15" y="430.7172">ExternalPhysician</text><line style="stroke:#000000;stroke-width:0.8;" x1="191.6" x2="353.2633" y1="437.0688" y2="437.0688"/><ellipse cx="199.6" cy="448.2746" fill="none" rx="2.4" ry="2.4" style="stroke:#000000;stroke-width:0.8;"/><text fill="#000000" font-family="Verdana" font-size="11.2" lengthAdjust="spacing" textLength="144.0633" x="205.2" y="451.5289">physicianNumber : String</text><ellipse cx="199.6" cy="461.8863" fill="none" rx="2.4" ry="2.4" style="stroke:#000000;stroke-width:0.8;"/><text fill="#000000" font-family="Verdana" font-size="11.2" lengthAdjust="spacing" textLength="78.3289" x="205.2" y="465.1406">name : String</text><line style="stroke:#000000;stroke-width:0.8;" x1="191.6" x2="353.2633" y1="470.6922" y2="470.6922"/></g><!--class ExtPat--><g class="entity" data-entity="ExtPat" data-source-line="53" data-uid="ent0011" id="entity_ExtPat"><rect fill="#FFFFFF" height="73.3023" rx="2" ry="2" style="stroke:#000000;stroke-width:0.8;" width="150.3023" x="654" y="403.7898"/><text fill="#000000" font-family="Verdana" font-size="9.6" font-style="italic" lengthAdjust="spacing" textLength="60.4313" x="698.9355" y="417.4414">&#171;Projection&#187;</text><text fill="#000000" font-family="Verdana" font-size="11.2" lengthAdjust="spacing" textLength="85.6023" x="686.35" y="430.7172">ExternalPatient</text><line style="stroke:#000000;stroke-width:0.8;" x1="654.8" x2="803.5023" y1="437.0688" y2="437.0688"/><ellipse cx="662.8" cy="448.2746" fill="none" rx="2.4" ry="2.4" style="stroke:#000000;stroke-width:0.8;"/><text fill="#000000" font-family="Verdana" font-size="11.2" lengthAdjust="spacing" textLength="131.1023" x="668.4" y="451.5289">patientNumber : String</text><ellipse cx="662.8" cy="461.8863" fill="none" rx="2.4" ry="2.4" style="stroke:#000000;stroke-width:0.8;"/><text fill="#000000" font-family="Verdana" font-size="11.2" lengthAdjust="spacing" textLength="78.3289" x="668.4" y="465.1406">name : String</text><line style="stroke:#000000;stroke-width:0.8;" x1="654.8" x2="803.5023" y1="470.6922" y2="470.6922"/></g><g class="entity" data-entity="N2" data-source-line="70" data-uid="ent0018" id="entity_N2"><path d="M8.8,279.7898 L8.8,300.4293 L165.157,300.4293 L165.157,287.7898 L157.157,279.7898 L8.8,279.7898" fill="#FFFFFF" style="stroke:#000000;stroke-width:0.8;"/><path d="M157.157,279.7898 L157.157,287.7898 L165.157,287.7898 L157.157,279.7898" fill="#FFFFFF" style="stroke:#000000;stroke-width:0.8;"/><text fill="#000000" font-family="Verdana" font-size="10.4" lengthAdjust="spacing" textLength="139.557" x="13.6" y="294.2457">Sincronizado via RabbitMQ</text></g><g class="entity" data-entity="N1" data-source-line="74" data-uid="ent0021" id="entity_N1"><path d="M830.4,279.7898 L830.4,300.4293 L986.757,300.4293 L986.757,287.7898 L978.757,279.7898 L830.4,279.7898" fill="#FFFFFF" style="stroke:#000000;stroke-width:0.8;"/><path d="M978.757,279.7898 L978.757,287.7898 L986.757,287.7898 L978.757,279.7898" fill="#FFFFFF" style="stroke:#000000;stroke-width:0.8;"/><text fill="#000000" font-family="Verdana" font-size="10.4" lengthAdjust="spacing" textLength="139.557" x="835.2" y="294.2457">Sincronizado via RabbitMQ</text></g><!--reverse link Appointment to AppointmentStatus--><g class="link" data-entity-1="Appointment" data-entity-2="AppointmentStatus" data-source-line="58" data-uid="lnk12" id="link_Appointment_AppointmentStatus"><path codeLine="58" d="M447.2,364.6618 C447.2,380.9658 447.2,388.3178 447.2,402.7978" fill="none" id="Appointment-backto-AppointmentStatus" style="stroke:#000000;stroke-width:0.8;"/><polygon fill="#000000" points="447.2,355.0618,444,359.8618,447.2,364.6618,450.4,359.8618,447.2,355.0618" style="stroke:#000000;stroke-width:0.8;"/></g><!--reverse link Appointment to ConsultationType--><g class="link" data-entity-1="Appointment" data-entity-2="ConsultationType" data-source-line="59" data-uid="lnk13" id="link_Appointment_ConsultationType"><path codeLine="59" d="M569,364.6618 C569,383.5898 569,393.7978 569,409.5818" fill="none" id="Appointment-backto-ConsultationType" style="stroke:#000000;stroke-width:0.8;"/><polygon fill="#000000" points="569,355.0618,565.8,359.8618,569,364.6618,572.2,359.8618,569,355.0618" style="stroke:#000000;stroke-width:0.8;"/></g><!--link Appointment to ExtPhys--><g class="link" data-entity-1="Appointment" data-entity-2="ExtPhys" data-source-line="61" data-uid="lnk14" id="link_Appointment_ExtPhys"><path codeLine="61" d="M399.016,327.7898 C354.584,327.7898 313.296,327.7898 313.296,327.7898 C313.296,327.7898 313.296,365.9578 313.296,398.8538" fill="none" id="Appointment-to-ExtPhys" style="stroke:#000000;stroke-width:0.8;stroke-dasharray:5.6,5.6;"/><polygon fill="#000000" points="313.296,403.6538,316.496,396.4538,313.296,399.6538,310.096,396.4538,313.296,403.6538" style="stroke:#000000;stroke-width:0.8;"/><text fill="#000000" font-family="Verdana" font-size="10.4" lengthAdjust="spacing" textLength="56.3367" x="261.424" y="325.4457">valida com</text></g><!--link Appointment to ExtPat--><g class="link" data-entity-1="Appointment" data-entity-2="ExtPat" data-source-line="62" data-uid="lnk15" id="link_Appointment_ExtPat"><path codeLine="62" d="M614.448,327.7898 C643.248,327.7898 666.536,327.7898 666.536,327.7898 C666.536,327.7898 666.536,365.9578 666.536,398.8538" fill="none" id="Appointment-to-ExtPat" style="stroke:#000000;stroke-width:0.8;stroke-dasharray:5.6,5.6;"/><polygon fill="#000000" points="666.536,403.6538,669.736,396.4538,666.536,399.6538,663.336,396.4538,666.536,403.6538" style="stroke:#000000;stroke-width:0.8;"/><text fill="#000000" font-family="Verdana" font-size="10.4" lengthAdjust="spacing" textLength="56.3367" x="667.336" y="337.3337">valida com</text></g><!--link Physician to Appointment--><!--link Patient to Appointment--><!--link Physician to N2--><g class="link" data-entity-1="Physician" data-entity-2="N2" data-source-line="71" data-uid="lnk19" id="link_Physician_N2"><path codeLine="71" d="M231.904,164.6698 C231.904,214.0858 231.904,286.9898 231.904,286.9898 C231.904,286.9898 199.216,286.9898 164.872,286.9898" fill="none" id="Physician-N2" style="stroke:#000000;stroke-width:0.8;stroke-dasharray:5.6,5.6;"/></g><!--link N2 to ExtPhys--><g class="link" data-entity-1="N2" data-entity-2="ExtPhys" data-source-line="72" data-uid="lnk20" id="link_N2_ExtPhys"><path codeLine="72" d="M165.056,294.1898 C215.832,294.1898 272.6,294.1898 272.6,294.1898 C272.6,294.1898 272.6,355.4778 272.6,398.8458" fill="none" id="N2-to-ExtPhys" style="stroke:#000000;stroke-width:0.8;stroke-dasharray:5.6,5.6;"/><polygon fill="#000000" points="272.6,403.6458,275.8,396.4458,272.6,399.6458,269.4,396.4458,272.6,403.6458" style="stroke:#000000;stroke-width:0.8;"/></g><!--link Patient to N1--><g class="link" data-entity-1="Patient" data-entity-2="N1" data-source-line="75" data-uid="lnk22" id="link_Patient_N1"><path codeLine="75" d="M660.264,157.8298 C660.264,207.0298 660.264,286.9898 660.264,286.9898 C660.264,286.9898 757.496,286.9898 830.232,286.9898" fill="none" id="Patient-N1" style="stroke:#000000;stroke-width:0.8;stroke-dasharray:5.6,5.6;"/></g><!--link N1 to ExtPat--><g class="link" data-entity-1="N1" data-entity-2="ExtPat" data-source-line="76" data-uid="lnk23" id="link_N1_ExtPat"><path codeLine="76" d="M830.208,294.1898 C785.648,294.1898 738.6,294.1898 738.6,294.1898 C738.6,294.1898 738.6,355.4778 738.6,398.8458" fill="none" id="N1-to-ExtPat" style="stroke:#000000;stroke-width:0.8;stroke-dasharray:5.6,5.6;"/><polygon fill="#000000" points="738.6,403.6458,741.8,396.4458,738.6,399.6458,735.4,396.4458,738.6,403.6458" style="stroke:#000000;stroke-width:0.8;"/></g><!--SRC=[dLJDRXen4BxxAQOS6j8MfEGOHKWHRDIei118UwcgQl1EWvjTsx9DchJAy-JKKzKduCKwIyB6422eUrdvcyypt_nuNeK95GGsHwN5H6K4KZcPa_1NIbjqM42kD8LRIs1Sc1WXWWevmIVb0q9tzkTIIOG6z4n6kG5sq375xBTM1kez9PtnvAxLxDvuU0tjy-5eNmYByWel2Mg3oQrNKg66jj61Ra8DVWdWJ-ReFJoP7z3oUmjsWQRJOamEZc0KdDANS7my-D1gHKoDdDh27E7U4j_Fm-qwesGbACEP_cQMpNVYBfQEGP4E6uG_6fTaFs3_BTfEZAQLssjqdLXhb0x5Hcqn8TQ7J_YB6hdrBboekT2kaPXtC51vZZYainSOx2LCFHCYIQCv5f7catTKfkAdEHkLqHSCLOn6OxVHE5tEO6CtAXuNjVoHdXRF1KQL6xNV9vsFtQHJ8Pr-cbI7zadQJheBS-nqDQN8vrdwTP0CH_sqGeP9ht-Hn3xsEFN6_4L1lMybEy7y7HJeGHNMaVSbib-IekRNafj0ZfdLqwe1ts2q1Cf6E_ETP2cfrThfrMsTt4Ufgx4VQbz5nh0ryDfExH8sdlGtNAlrOxRAUZPfprZDPgkgs15SOwuovBLHR2HoWaiyrhS7GyfnTZ_xInvE7KgkHVt4akQ_DGxEEllYQVqrFlDgpaX_oSmFtMZ5GSHYrspZ2A5DuEKmKfetibO_CJDmhH26E1whq3kVzo8zZ48sc-KvFOoptT7DGQMfT78WqeEe4k8V]--></g></svg>