<svg xmlns="http://www.w3.org/2000/svg" xmlns:xlink="http://www.w3.org/1999/xlink" contentStyleType="text/css" data-diagram-type="DESCRIPTION" height="703.8px" preserveAspectRatio="none" style="width:720px;height:703px;background:#FFFFFF;" version="1.1" viewBox="0 0 720 703" width="720px" zoomAndPan="magnify"><title>C3 &#8212; Appointment Service &#8212; Component Diagram</title><defs/><g><g class="title" data-source-line="1"><text fill="#000000" font-family="sans-serif" font-size="12.6" font-weight="bold" lengthAdjust="spacing" textLength="305.2424" x="201.2678" y="22.5967">C3 &#8212; Appointment Service &#8212; Component Diagram</text></g><!--cluster Appointment Service Container--><g class="cluster" data-entity="Appointment Service Container" data-source-line="31" data-uid="ent0004" id="cluster_Appointment Service Container"><path d="M7.65,133.759 L196.8794,133.759 A3.375,3.375 0 0 1 199.1294,136.009 L205.4294,155.918 L589.95,155.918 A2.25,2.25 0 0 1 592.2,158.168 L592.2,695.809 A2.25,2.25 0 0 1 589.95,698.059 L7.65,698.059 A2.25,2.25 0 0 1 5.4,695.809 L5.4,136.009 A2.25,2.25 0 0 1 7.65,133.759" fill="#F9F9F9" style="stroke:#999999;stroke-width:1.35;"/><line style="stroke:#999999;stroke-width:1.35;" x1="5.4" x2="205.4294" y1="155.918" y2="155.918"/><text fill="#666666" font-family="sans-serif" font-size="12.6" font-weight="bold" lengthAdjust="spacing" textLength="188.3294" x="9" y="149.1557">Appointment Service Container</text></g><!--cluster Web Layer--><g class="cluster" data-entity="Web Layer" data-source-line="34" data-uid="ent0005" id="cluster_Web Layer"><path d="M238.95,174.259 L303.5698,174.259 A3.375,3.375 0 0 1 305.8198,176.509 L312.1198,196.418 L568.35,196.418 A2.25,2.25 0 0 1 570.6,198.668 L570.6,271.909 A2.25,2.25 0 0 1 568.35,274.159 L238.95,274.159 A2.25,2.25 0 0 1 236.7,271.909 L236.7,176.509 A2.25,2.25 0 0 1 238.95,174.259" fill="#F9F9F9" style="stroke:#999999;stroke-width:1.35;"/><line style="stroke:#999999;stroke-width:1.35;" x1="236.7" x2="312.1198" y1="196.418" y2="196.418"/><text fill="#666666" font-family="sans-serif" font-size="12.6" font-weight="bold" lengthAdjust="spacing" textLength="63.7198" x="240.3" y="189.6557">Web Layer</text></g><!--cluster Business Layer--><g class="cluster" data-entity="Business Layer" data-source-line="40" data-uid="ent0008" id="cluster_Business Layer"><path d="M421.65,328.159 L515.6965,328.159 A3.375,3.375 0 0 1 517.9465,330.409 L524.2465,350.318 L568.35,350.318 A2.25,2.25 0 0 1 570.6,352.568 L570.6,425.809 A2.25,2.25 0 0 1 568.35,428.059 L421.65,428.059 A2.25,2.25 0 0 1 419.4,425.809 L419.4,330.409 A2.25,2.25 0 0 1 421.65,328.159" fill="#F9F9F9" style="stroke:#999999;stroke-width:1.35;"/><line style="stroke:#999999;stroke-width:1.35;" x1="419.4" x2="524.2465" y1="350.318" y2="350.318"/><text fill="#666666" font-family="sans-serif" font-size="12.6" font-weight="bold" lengthAdjust="spacing" textLength="93.1465" x="423" y="343.5557">Business Layer</text></g><!--cluster Messaging Layer--><g class="cluster" data-entity="Messaging Layer" data-source-line="45" data-uid="ent0010" id="cluster_Messaging Layer"><path d="M32.85,320.059 L135.9896,320.059 A3.375,3.375 0 0 1 138.2396,322.309 L144.5396,342.218 L342.45,342.218 A2.25,2.25 0 0 1 344.7,344.468 L344.7,433.909 A2.25,2.25 0 0 1 342.45,436.159 L32.85,436.159 A2.25,2.25 0 0 1 30.6,433.909 L30.6,322.309 A2.25,2.25 0 0 1 32.85,320.059" fill="#F9F9F9" style="stroke:#999999;stroke-width:1.35;"/><line style="stroke:#999999;stroke-width:1.35;" x1="30.6" x2="144.5396" y1="342.218" y2="342.218"/><text fill="#666666" font-family="sans-serif" font-size="12.6" font-weight="bold" lengthAdjust="spacing" textLength="102.2396" x="34.2" y="335.4557">Messaging Layer</text></g><!--cluster Data Access Layer (CQRS)--><g class="cluster" data-entity="Data Access Layer .CQRS." data-source-line="51" data-uid="ent0013" id="cluster_Data Access Layer .CQRS."><path d="M72.45,482.059 L233.717,482.059 A3.375,3.375 0 0 1 235.967,484.309 L242.267,504.218 L568.35,504.218 A2.25,2.25 0 0 1 570.6,506.468 L570.6,579.709 A2.25,2.25 0 0 1 568.35,581.959 L72.45,581.959 A2.25,2.25 0 0 1 70.2,579.709 L70.2,484.309 A2.25,2.25 0 0 1 72.45,482.059" fill="#F9F9F9" style="stroke:#999999;stroke-width:1.35;"/><line style="stroke:#999999;stroke-width:1.35;" x1="70.2" x2="242.267" y1="504.218" y2="504.218"/><text fill="#666666" font-family="sans-serif" font-size="12.6" font-weight="bold" lengthAdjust="spacing" textLength="160.367" x="73.8" y="497.4557">Data Access Layer (CQRS)</text></g><!--entity db--><g class="entity" data-entity="db" data-source-line="57" data-uid="ent0017" id="entity_db"><path d="M268.2,649.459 C268.2,640.459 313.9726,640.459 313.9726,640.459 C313.9726,640.459 359.7451,640.459 359.7451,649.459 L359.7451,674.318 C359.7451,683.318 313.9726,683.318 313.9726,683.318 C313.9726,683.318 268.2,683.318 268.2,674.318 L268.2,649.459" fill="#61B329" style="stroke:#000000;stroke-width:0.45;"/><path d="M268.2,649.459 C268.2,658.459 313.9726,658.459 313.9726,658.459 C313.9726,658.459 359.7451,658.459 359.7451,649.459" fill="none" style="stroke:#000000;stroke-width:0.45;"/><text fill="#FFFFFF" font-family="sans-serif" font-size="12.6" lengthAdjust="spacing" textLength="73.5451" x="277.2" y="675.6557">H2 Database</text></g><!--entity controller--><g class="entity" data-entity="controller" data-source-line="35" data-uid="ent0006" id="entity_controller"><rect fill="#E6F2FF" height="33.5619" rx="2.25" ry="2.25" style="stroke:#08427B;stroke-width:0.45;" width="134.4116" x="421.65" y="226.459"/><text fill="#000000" font-family="sans-serif" font-size="11.7" lengthAdjust="spacing" textLength="116.4116" x="430.65" y="248.0845">AppointmentController</text></g><!--entity security--><g class="entity" data-entity="security" data-source-line="36" data-uid="ent0007" id="entity_security"><rect fill="#E6F2FF" height="33.5619" rx="2.25" ry="2.25" style="stroke:#08427B;stroke-width:0.45;" width="94.0843" x="251.55" y="226.459"/><text fill="#000000" font-family="sans-serif" font-size="11.7" lengthAdjust="spacing" textLength="76.0843" x="260.55" y="248.0845">SecurityConfig</text></g><!--entity service--><g class="entity" data-entity="service" data-source-line="41" data-uid="ent0009" id="entity_service"><rect fill="#E6F2FF" height="33.5619" rx="2.25" ry="2.25" style="stroke:#08427B;stroke-width:0.45;" width="122.7059" x="433.8" y="380.359"/><text fill="#000000" font-family="sans-serif" font-size="11.7" lengthAdjust="spacing" textLength="104.7059" x="442.8" y="401.9845">AppointmentService</text></g><!--entity producer--><g class="entity" data-entity="producer" data-source-line="46" data-uid="ent0011" id="entity_producer"><rect fill="#E6F2FF" height="49.1238" rx="2.25" ry="2.25" style="stroke:#08427B;stroke-width:0.45;" width="131.1667" x="198.9" y="372.259"/><text fill="#000000" font-family="sans-serif" font-size="11.7" lengthAdjust="spacing" textLength="113.1667" x="207.9" y="393.8845">AppointmentProducer</text><text fill="#000000" font-family="sans-serif" font-size="11.7" lengthAdjust="spacing" textLength="82.5855" x="207.9" y="409.4464">(Envia Eventos)</text></g><!--entity consumer--><g class="entity" data-entity="consumer" data-source-line="47" data-uid="ent0012" id="entity_consumer"><rect fill="#E6F2FF" height="49.1238" rx="2.25" ry="2.25" style="stroke:#08427B;stroke-width:0.45;" width="122.6944" x="45" y="372.259"/><text fill="#000000" font-family="sans-serif" font-size="11.7" lengthAdjust="spacing" textLength="104.6944" x="54" y="393.8845">DataSyncConsumer</text><text fill="#000000" font-family="sans-serif" font-size="11.7" lengthAdjust="spacing" textLength="85.1906" x="54" y="409.4464">(Recebe Dados)</text></g><!--entity app_repo--><g class="entity" data-entity="app_repo" data-source-line="52" data-uid="ent0014" id="entity_app_repo"><rect fill="#E6F2FF" height="33.5619" rx="2.25" ry="2.25" style="stroke:#08427B;stroke-width:0.45;" width="139.616" x="416.25" y="534.259"/><text fill="#000000" font-family="sans-serif" font-size="11.7" lengthAdjust="spacing" textLength="121.616" x="425.25" y="555.8845">AppointmentRepository</text></g><!--entity phys_repo--><g class="entity" data-entity="phys_repo" data-source-line="53" data-uid="ent0015" id="entity_phys_repo"><rect fill="#E6F2FF" height="33.5619" rx="2.25" ry="2.25" style="stroke:#08427B;stroke-width:0.45;" width="140.9014" x="243.45" y="534.259"/><text fill="#000000" font-family="sans-serif" font-size="11.7" lengthAdjust="spacing" textLength="122.9014" x="252.45" y="555.8845">ExtPhysicianRepository</text></g><!--entity pat_repo--><g class="entity" data-entity="pat_repo" data-source-line="54" data-uid="ent0016" id="entity_pat_repo"><rect fill="#E6F2FF" height="33.5619" rx="2.25" ry="2.25" style="stroke:#08427B;stroke-width:0.45;" width="127.2533" x="85.05" y="534.259"/><text fill="#000000" font-family="sans-serif" font-size="11.7" lengthAdjust="spacing" textLength="109.2533" x="94.05" y="555.8845">ExtPatientRepository</text></g><!--entity gateway--><g class="entity" data-entity="gateway" data-source-line="28" data-uid="ent0002" id="entity_gateway"><rect fill="#DDDDDD" height="33.5619" rx="2.25" ry="2.25" style="stroke:#08427B;stroke-width:0.45;" width="86.2805" x="255.6" y="41.959"/><text fill="#000000" font-family="sans-serif" font-size="11.7" lengthAdjust="spacing" textLength="68.2805" x="264.6" y="63.5845">API Gateway</text></g><!--entity rabbitmq--><g class="entity" data-entity="rabbitmq" data-source-line="29" data-uid="ent0003" id="entity_rabbitmq"><rect fill="#FFD699" height="33.5619" rx="2.25" ry="2.25" style="stroke:#08427B;stroke-width:0.45;" width="108.3779" x="606.6" y="380.359"/><text fill="#000000" font-family="sans-serif" font-size="11.7" lengthAdjust="spacing" textLength="90.3779" x="615.6" y="401.9845">RabbitMQ Broker</text></g><!--link gateway to security--><g class="link" data-entity-1="gateway" data-entity-2="security" data-source-line="61" data-uid="lnk18" id="link_gateway_security"><path d="M298.8,75.403 C298.8,109.954 298.8,186.184 298.8,220.825" fill="none" id="gateway-to-security" style="stroke:#181818;stroke-width:0.9;stroke-dasharray:6.3,6.3;"/><polygon fill="#181818" points="298.8,226.225,302.4,218.125,298.8,221.725,295.2,218.125,298.8,226.225" style="stroke:#181818;stroke-width:0.9;"/><text fill="#000000" font-family="sans-serif" font-size="11.7" lengthAdjust="spacing" textLength="30.5468" x="299.7" y="115.7845">HTTP</text></g><!--link security to controller--><g class="link" data-entity-1="security" data-entity-2="controller" data-source-line="62" data-uid="lnk19" id="link_security_controller"><path d="M346.23,243.109 C368.973,243.109 391.212,243.109 416.07,243.109" fill="none" id="security-to-controller" style="stroke:#181818;stroke-width:0.9;"/><polygon fill="#181818" points="421.47,243.109,413.37,239.509,416.97,243.109,413.37,246.709,421.47,243.109" style="stroke:#181818;stroke-width:0.9;"/><text fill="#000000" font-family="sans-serif" font-size="11.7" lengthAdjust="spacing" textLength="42.9209" x="362.7" y="236.8345">Secures</text></g><!--link controller to service--><g class="link" data-entity-1="controller" data-entity-2="service" data-source-line="63" data-uid="lnk20" id="link_controller_service"><path d="M489.366,260.002 C490.572,289.288 492.9136,345.8126 494.1196,374.9366" fill="none" id="controller-to-service" style="stroke:#181818;stroke-width:0.9;"/><polygon fill="#181818" points="494.343,380.332,497.6048,372.09,494.1568,375.8358,490.411,372.3879,494.343,380.332" style="stroke:#181818;stroke-width:0.9;"/><text fill="#000000" font-family="sans-serif" font-size="11.7" lengthAdjust="spacing" textLength="57.226" x="491.4" y="302.0845">Calls Logic</text></g><!--link service to app_repo--><g class="link" data-entity-1="service" data-entity-2="app_repo" data-source-line="66" data-uid="lnk21" id="link_service_app_repo"><path d="M494.055,413.902 C492.318,443.188 488.9732,499.7174 487.2542,528.8414" fill="none" id="service-to-app_repo" style="stroke:#181818;stroke-width:0.9;"/><polygon fill="#181818" points="486.936,534.232,491.007,526.3582,487.2011,529.7398,483.8195,525.9339,486.936,534.232" style="stroke:#181818;stroke-width:0.9;"/><text fill="#000000" font-family="sans-serif" font-size="11.7" lengthAdjust="spacing" textLength="59.8254" x="492.3" y="464.0845">Persist App</text></g><!--link service to phys_repo--><g class="link" data-entity-1="service" data-entity-2="phys_repo" data-source-line="67" data-uid="lnk22" id="link_service_phys_repo"><path d="M450.207,413.668 C429.3,422.425 404.937,434.782 386.1,450.559 C357.336,474.652 336.6954,507.8887 324.9684,529.2637" fill="none" id="service-to-phys_repo" style="stroke:#181818;stroke-width:0.9;"/><polygon fill="#181818" points="322.371,533.998,329.4233,528.6281,324.5355,530.0527,323.1109,525.1649,322.371,533.998" style="stroke:#181818;stroke-width:0.9;"/><text fill="#000000" font-family="sans-serif" font-size="11.7" lengthAdjust="spacing" textLength="95.6052" x="387" y="464.0845">Validate Physician</text></g><!--link service to pat_repo--><g class="link" data-entity-1="service" data-entity-2="pat_repo" data-source-line="68" data-uid="lnk23" id="link_service_pat_repo"><path d="M450.504,413.749 C420.885,423.694 380.898,435.997 344.7,443.359 C315.522,449.29 306.729,442.378 278.1,450.559 C254.187,457.399 248.166,460.729 227.7,474.859 C202.428,492.301 181.0717,513.7784 166.1137,530.1224" fill="none" id="service-to-pat_repo" style="stroke:#181818;stroke-width:0.9;"/><polygon fill="#181818" points="162.468,534.106,170.5923,530.5612,165.5061,530.7864,165.2809,525.7002,162.468,534.106" style="stroke:#181818;stroke-width:0.9;"/><text fill="#000000" font-family="sans-serif" font-size="11.7" lengthAdjust="spacing" textLength="81.9571" x="279" y="464.0845">Validate Patient</text></g><!--link service to producer--><g class="link" data-entity-1="service" data-entity-2="producer" data-source-line="69" data-uid="lnk24" id="link_service_producer"><path d="M433.548,397.009 C401.688,397.009 368.172,397.009 335.718,397.009" fill="none" id="service-to-producer" style="stroke:#181818;stroke-width:0.9;"/><polygon fill="#181818" points="330.318,397.009,338.418,400.609,334.818,397.009,338.418,393.409,330.318,397.009" style="stroke:#181818;stroke-width:0.9;"/><text fill="#000000" font-family="sans-serif" font-size="11.7" lengthAdjust="spacing" textLength="70.2286" x="346.95" y="390.7345">Trigger Event</text></g><!--link producer to rabbitmq--><g class="link" data-entity-1="producer" data-entity-2="rabbitmq" data-source-line="72" data-uid="lnk25" id="link_producer_rabbitmq"><path d="M277.56,372.169 C289.872,351.514 310.509,323.56 337.5,311.059 C356.904,302.077 464.067,270.235 570.6,312.859 C604.764,326.521 630.405,355.492 645.687,375.868" fill="none" id="producer-to-rabbitmq" style="stroke:#181818;stroke-width:0.9;stroke-dasharray:6.3,6.3;"/><polygon fill="#181818" points="648.927,380.188,646.947,371.548,646.227,376.588,641.187,375.868,648.927,380.188" style="stroke:#181818;stroke-width:0.9;"/><text fill="#000000" font-family="sans-serif" font-size="11.7" lengthAdjust="spacing" textLength="38.3735" x="338.4" y="302.0845">Publish</text></g><!--reverse link consumer to rabbitmq--><g class="link" data-entity-1="consumer" data-entity-2="rabbitmq" data-source-line="73" data-uid="lnk27" id="link_consumer_rabbitmq"><path d="M124.0262,367.4022 C137.4992,347.2692 156.393,324.946 183.6,312.859 C222.903,295.408 530.712,296.794 570.6,312.859 C604.728,326.602 633.627,359.866 648.909,380.215" fill="none" id="consumer-backto-rabbitmq" style="stroke:#181818;stroke-width:0.9;stroke-dasharray:6.3,6.3;"/><polygon fill="#181818" points="121.023,371.89,128.5197,367.1604,123.5257,368.1501,122.536,363.1561,121.023,371.89" style="stroke:#181818;stroke-width:0.9;"/><text fill="#000000" font-family="sans-serif" font-size="11.7" lengthAdjust="spacing" textLength="50.0735" x="390.15" y="302.0845">Consume</text></g><!--link consumer to phys_repo--><g class="link" data-entity-1="consumer" data-entity-2="phys_repo" data-source-line="76" data-uid="lnk28" id="link_consumer_phys_repo"><path d="M116.289,421.795 C124.299,437.608 137.106,457.282 154.8,467.659 C182.889,484.129 197.802,461.962 227.7,474.859 C258.372,488.089 282.4689,512.2215 297.8409,530.0685" fill="none" id="consumer-to-phys_repo" style="stroke:#181818;stroke-width:0.9;"/><polygon fill="#181818" points="301.365,534.16,298.8065,525.6733,298.4282,530.7504,293.3511,530.3721,301.365,534.16" style="stroke:#181818;stroke-width:0.9;"/><text fill="#000000" font-family="sans-serif" font-size="11.7" lengthAdjust="spacing" textLength="68.9375" x="155.7" y="464.0845">Save Replica</text></g><!--link consumer to pat_repo--><g class="link" data-entity-1="consumer" data-entity-2="pat_repo" data-source-line="77" data-uid="lnk29" id="link_consumer_pat_repo"><path d="M67.518,421.93 C52.515,434.494 40.626,450.757 48.6,467.659 C62.694,497.539 88.8897,517.5292 112.5957,531.4522" fill="none" id="consumer-to-pat_repo" style="stroke:#181818;stroke-width:0.9;"/><polygon fill="#181818" points="117.252,534.187,112.0907,526.9807,113.3717,531.908,108.4444,533.1891,117.252,534.187" style="stroke:#181818;stroke-width:0.9;"/><text fill="#000000" font-family="sans-serif" font-size="11.7" lengthAdjust="spacing" textLength="68.9375" x="49.5" y="464.0845">Save Replica</text></g><!--link app_repo to db--><g class="link" data-entity-1="app_repo" data-entity-2="db" data-source-line="80" data-uid="lnk30" id="link_app_repo_db"><path d="M461.007,567.712 C430.83,586.9 384.5722,616.3295 351.3262,637.4795" fill="none" id="app_repo-to-db" style="stroke:#181818;stroke-width:0.9;"/><polygon fill="#181818" points="346.77,640.378,355.5366,639.0677,350.5668,637.9626,351.6719,632.9928,346.77,640.378" style="stroke:#181818;stroke-width:0.9;"/><text fill="#000000" font-family="sans-serif" font-size="11.7" lengthAdjust="spacing" textLength="23.4114" x="415.8" y="609.8845">SQL</text></g><!--link phys_repo to db--><g class="link" data-entity-1="phys_repo" data-entity-2="db" data-source-line="81" data-uid="lnk31" id="link_phys_repo_db"><path d="M314.1,567.712 C314.1,586.9 314.1,613.828 314.1,634.978" fill="none" id="phys_repo-to-db" style="stroke:#181818;stroke-width:0.9;"/><polygon fill="#181818" points="314.1,640.378,317.7,632.278,314.1,635.878,310.5,632.278,314.1,640.378" style="stroke:#181818;stroke-width:0.9;"/></g><!--link pat_repo to db--><g class="link" data-entity-1="pat_repo" data-entity-2="db" data-source-line="82" data-uid="lnk32" id="link_pat_repo_db"><path d="M172.584,567.712 C201.645,586.9 246.0897,616.2525 278.1207,637.4025" fill="none" id="pat_repo-to-db" style="stroke:#181818;stroke-width:0.9;"/><polygon fill="#181818" points="282.627,640.378,277.8512,632.9106,278.8718,637.8984,273.8839,638.9189,282.627,640.378" style="stroke:#181818;stroke-width:0.9;"/></g><!--SRC=[ZLNDZjis4BxhAGQRmze76rbli4rwM42MP4U0R7b5PviM1GfQvih4og9AqawT842077BgQVi6VHI_IPua8rgIvP-qeG6377uptyp78QMvJXaur_3rqpzWvxdWcLwoJ0DXSirZPkoEMEOYAwmkfucaIykwX4wd0nwP-a58uDudRsoVGCi9F7lSBlOizSYpd28Or8BEnJkU9V10KyKQEt4LcEWDfY5Ph6cMf4r8oZEcDpa38VL2m2K4F5jGXLYD_otCLIYCapsirFPV0MkkLZHjMuq8EOqVQSBWWmKu-hXAf5XbSqUaGiApmQlYjziJSivaQNzbXh4FHAPBwuqPraVhN1NVe_1k1ht1u9JY-SiNlP_wnnJFpQYjXBzdS7LzI3cdciwe-cvHDrVzwzwPeevYLnAOKJ3iZfNuPEgDR0BUswaNZV60YmFTbtbXJtmOKitUqSq5u34akpaySyreGYCwct4zkeE-58zC6hWqjkMV1RDxWo9RrHbTd6j11pEbs0Re_C4okL_2LHSSUsIxDhWUUEDfL4nRJeYpC0Yyg6rmTTXVs0m2kjc5W78q2zhJ5cnIf6cPQrmlp_aH5gyarnjqUk29SL2boS0_LldsclcElU7soV738k78Eqgrlr9Ogr8_cc-fKibjveVKrqtgaJSczX3_eENTesuXEQ8V8JLDYilwW_mJAUQhcCdVivQNhJa5RurMeTecexpSFHV4nIOccon6yTHgQI94B6Op1Yu-66M0kDmyhEb5ioRNTh55Mv4t2Oa_tJv5_abL1HNOSLphYjBVHQJz_-L5B1UAQo5tdKxp_0-9fdDUtbzwijWe7dEQ7RdbQFzFFwhvALbEzTwfhBs- -HUlU-2M2uEUp_OtU12yUHl29FB7ZZ-n0sYHxTzZ9mh7uUvnhYvi5n_ch7jRDoty3A-dqubLhpkI9mlTkMtS0yIOjcVAQXWxHQJERTM2279ecgBQ8k5nbLQmVHhwpk4TCD-AqgaAKgcCKIPCAgvqyMqwWTMg8kwUfXorOL0VmIcybFC0lHD-ZwtghHeNmLEq9JWpZNsei4rgOQ5LtwsTndM4hec9AjVl7fQrcgLSBQpQr4tPGu6f-hqGS3VTlyg6oF_DtdxPVWuRdKz-7JljyeqklSz9HEYQ0RPOocDw1hbNvm1O7Pq_B7ctdw3l6hRwcAeOyrdXVHTOUzhzbbKpD6pV0000]--></g></svg>