<svg xmlns="http://www.w3.org/2000/svg" xmlns:xlink="http://www.w3.org/1999/xlink" contentStyleType="text/css" data-diagram-type="SEQUENCE" height="696px" preserveAspectRatio="none" style="width:1692px;height:696px;background:#FFFFFF;" version="1.1" viewBox="0 0 1692 696" width="1692px" zoomAndPan="magnify"><title>US03 - Register Physician</title><defs/><g><text fill="#000000" font-family="sans-serif" font-size="14" font-weight="bold" lengthAdjust="spacing" textLength="172.7373" x="796.667" y="30.1074">US03 - Register Physician</text><rect fill="#E6F2FF" height="645.3164" style="stroke:#181818;stroke-width:0.5;" width="593.106" x="340.8491" y="45.6211"/><text fill="#000000" font-family="sans-serif" font-size="13" font-weight="bold" lengthAdjust="spacing" textLength="182.0825" x="546.3608" y="59.6494">Physician Service (Replica A)</text><rect fill="#F9F9F9" height="645.3164" style="stroke:#181818;stroke-width:0.5;" width="309.4116" x="1267.8604" y="45.6211"/><text fill="#000000" font-family="sans-serif" font-size="13" font-weight="bold" lengthAdjust="spacing" textLength="303.4116" x="1270.8604" y="59.6494">Physician Service (Replica B) / Appointment SVC</text><g><title>API Gateway</title><rect fill="#FFFFFF" height="325.9102" style="stroke:#181818;stroke-width:1;" width="10" x="229.7197" y="156.5332"/></g><g><title>PhysicianController</title><rect fill="#FFFFFF" height="219.0371" style="stroke:#181818;stroke-width:1;" width="10" x="407.1523" y="232.1152"/></g><g><title>PhysicianService</title><rect fill="#FFFFFF" height="156.4551" style="stroke:#181818;stroke-width:1;" width="10" x="573.0977" y="263.4063"/></g><g><title>PhysicianRepository</title><rect fill="#FFFFFF" height="31.291" style="stroke:#181818;stroke-width:1;" width="10" x="713.8145" y="294.6973"/></g><g><title>PhysicianProducer</title><rect fill="#FFFFFF" height="31.291" style="stroke:#181818;stroke-width:1;" width="10" x="859.5933" y="357.2793"/></g><g><title>DataSyncConsumer</title><rect fill="#FFFFFF" height="37.291" style="stroke:#181818;stroke-width:1;" width="10" x="1417.5662" y="540.0254"/></g><rect fill="none" height="94.873" style="stroke:#000000;stroke-width:1.5;" width="664.6448" x="1021.3584" y="497.4434"/><g><title>Administrator</title><rect fill="#000000" fill-opacity="0.00000" height="486.0742" width="8" x="45.2344" y="123.2422"/><line style="stroke:#181818;stroke-width:0.5;stroke-dasharray:5,5;" x1="49" x2="49" y1="123.2422" y2="609.3164"/></g><g><title>API Gateway</title><rect fill="#000000" fill-opacity="0.00000" height="486.0742" width="8" x="230.7197" y="123.2422"/><line style="stroke:#181818;stroke-width:0.5;stroke-dasharray:5,5;" x1="233.8682" x2="233.8682" y1="123.2422" y2="609.3164"/></g><g><title>PhysicianController</title><rect fill="#000000" fill-opacity="0.00000" height="486.0742" width="8" x="408.1523" y="123.2422"/><line style="stroke:#181818;stroke-width:0.5;stroke-dasharray:5,5;" x1="411.8491" x2="411.8491" y1="123.2422" y2="609.3164"/></g><g><title>PhysicianService</title><rect fill="#000000" fill-opacity="0.00000" height="486.0742" width="8" x="574.0977" y="123.2422"/><line style="stroke:#181818;stroke-width:0.5;stroke-dasharray:5,5;" x1="577.7979" x2="577.7979" y1="123.2422" y2="609.3164"/></g><g><title>PhysicianRepository</title><rect fill="#000000" fill-opacity="0.00000" height="486.0742" width="8" x="714.8145" y="123.2422"/><line style="stroke:#181818;stroke-width:0.5;stroke-dasharray:5,5;" x1="718.3975" x2="718.3975" y1="123.2422" y2="609.3164"/></g><g><title>PhysicianProducer</title><rect fill="#000000" fill-opacity="0.00000" height="486.0742" width="8" x="860.5933" y="123.2422"/><line style="stroke:#181818;stroke-width:0.5;stroke-dasharray:5,5;" x1="864.2314" x2="864.2314" y1="123.2422" y2="609.3164"/></g><g><title>RabbitMQ Broker</title><rect fill="#000000" fill-opacity="0.00000" height="486.0742" width="8" x="1091.4307" y="123.2422"/><line style="stroke:#181818;stroke-width:0.5;stroke-dasharray:5,5;" x1="1095.3584" x2="1095.3584" y1="123.2422" y2="609.3164"/></g><g><title>DataSyncConsumer</title><rect fill="#000000" fill-opacity="0.00000" height="486.0742" width="8" x="1418.5662" y="123.2422"/><line style="stroke:#181818;stroke-width:0.5;stroke-dasharray:5,5;" x1="1421.9285" x2="1421.9285" y1="123.2422" y2="609.3164"/></g><g class="participant participant-head" data-participant="Administrator"><text fill="#000000" font-family="sans-serif" font-size="14" lengthAdjust="spacing" textLength="82.4688" x="5" y="119.7285">Administrator</text><ellipse cx="49.2344" cy="53.1211" fill="#E2E2F0" rx="8" ry="8" style="stroke:#181818;stroke-width:0.5;"/><path d="M49.2344,61.1211 L49.2344,88.1211 M36.2344,69.1211 L62.2344,69.1211 M49.2344,88.1211 L36.2344,103.1211 M49.2344,88.1211 L62.2344,103.1211" fill="none" style="stroke:#181818;stroke-width:0.5;"/></g><g class="participant participant-tail" data-participant="Administrator"><text fill="#000000" font-family="sans-serif" font-size="14" lengthAdjust="spacing" textLength="82.4688" x="5" y="623.4238">Administrator</text><ellipse cx="49.2344" cy="635.4375" fill="#E2E2F0" rx="8" ry="8" style="stroke:#181818;stroke-width:0.5;"/><path d="M49.2344,643.4375 L49.2344,670.4375 M36.2344,651.4375 L62.2344,651.4375 M49.2344,670.4375 L36.2344,685.4375 M49.2344,670.4375 L62.2344,685.4375" fill="none" style="stroke:#181818;stroke-width:0.5;"/></g><g class="participant participant-head" data-participant="gateway"><rect fill="#E2E2F0" height="32.6211" rx="2.5" ry="2.5" style="stroke:#181818;stroke-width:0.5;" width="95.7031" x="186.8682" y="89.6211"/><text fill="#000000" font-family="sans-serif" font-size="14" lengthAdjust="spacing" textLength="81.7031" x="193.8682" y="111.7285">API Gateway</text></g><g class="participant participant-tail" data-participant="gateway"><rect fill="#E2E2F0" height="32.6211" rx="2.5" ry="2.5" style="stroke:#181818;stroke-width:0.5;" width="95.7031" x="186.8682" y="608.3164"/><text fill="#000000" font-family="sans-serif" font-size="14" lengthAdjust="spacing" textLength="81.7031" x="193.8682" y="630.4238">API Gateway</text></g><g class="participant participant-head" data-participant="controller"><rect fill="#E2E2F0" height="32.6211" rx="2.5" ry="2.5" style="stroke:#181818;stroke-width:0.5;" width="134.6064" x="344.8491" y="89.6211"/><text fill="#000000" font-family="sans-serif" font-size="14" lengthAdjust="spacing" textLength="120.6064" x="351.8491" y="111.7285">PhysicianController</text></g><g class="participant participant-tail" data-participant="controller"><rect fill="#E2E2F0" height="32.6211" rx="2.5" ry="2.5" style="stroke:#181818;stroke-width:0.5;" width="134.6064" x="344.8491" y="608.3164"/><text fill="#000000" font-family="sans-serif" font-size="14" lengthAdjust="spacing" textLength="120.6064" x="351.8491" y="630.4238">PhysicianController</text></g><g class="participant participant-head" data-participant="service"><rect fill="#E2E2F0" height="32.6211" rx="2.5" ry="2.5" style="stroke:#181818;stroke-width:0.5;" width="120.5996" x="517.7979" y="89.6211"/><text fill="#000000" font-family="sans-serif" font-size="14" lengthAdjust="spacing" textLength="106.5996" x="524.7979" y="111.7285">PhysicianService</text></g><g class="participant participant-tail" data-participant="service"><rect fill="#E2E2F0" height="32.6211" rx="2.5" ry="2.5" style="stroke:#181818;stroke-width:0.5;" width="120.5996" x="517.7979" y="608.3164"/><text fill="#000000" font-family="sans-serif" font-size="14" lengthAdjust="spacing" textLength="106.5996" x="524.7979" y="630.4238">PhysicianService</text></g><g class="participant participant-head" data-participant="repo"><rect fill="#E2E2F0" height="32.6211" rx="2.5" ry="2.5" style="stroke:#181818;stroke-width:0.5;" width="140.834" x="648.3975" y="89.6211"/><text fill="#000000" font-family="sans-serif" font-size="14" lengthAdjust="spacing" textLength="126.834" x="655.3975" y="111.7285">PhysicianRepository</text></g><g class="participant participant-tail" data-participant="repo"><rect fill="#E2E2F0" height="32.6211" rx="2.5" ry="2.5" style="stroke:#181818;stroke-width:0.5;" width="140.834" x="648.3975" y="608.3164"/><text fill="#000000" font-family="sans-serif" font-size="14" lengthAdjust="spacing" textLength="126.834" x="655.3975" y="630.4238">PhysicianRepository</text></g><g class="participant participant-head" data-participant="producer"><rect fill="#E2E2F0" height="32.6211" rx="2.5" ry="2.5" style="stroke:#181818;stroke-width:0.5;" width="130.7236" x="799.2314" y="89.6211"/><text fill="#000000" font-family="sans-serif" font-size="14" lengthAdjust="spacing" textLength="116.7236" x="806.2314" y="111.7285">PhysicianProducer</text></g><g class="participant participant-tail" data-participant="producer"><rect fill="#E2E2F0" height="32.6211" rx="2.5" ry="2.5" style="stroke:#181818;stroke-width:0.5;" width="130.7236" x="799.2314" y="608.3164"/><text fill="#000000" font-family="sans-serif" font-size="14" lengthAdjust="spacing" textLength="116.7236" x="806.2314" y="630.4238">PhysicianProducer</text></g><g class="participant participant-head" data-participant="mq"><path d="M1036.3584,94.6211 L1154.5029,94.6211 C1159.5029,94.6211 1159.5029,108.9316 1159.5029,108.9316 C1159.5029,108.9316 1159.5029,123.2422 1154.5029,123.2422 L1036.3584,123.2422 C1031.3584,123.2422 1031.3584,108.9316 1031.3584,108.9316 C1031.3584,108.9316 1031.3584,94.6211 1036.3584,94.6211" fill="#E2E2F0" style="stroke:#181818;stroke-width:0.5;"/><path d="M1154.5029,94.6211 C1149.5029,94.6211 1149.5029,108.9316 1149.5029,108.9316 C1149.5029,123.2422 1154.5029,123.2422 1154.5029,123.2422" fill="none" style="stroke:#181818;stroke-width:0.5;"/><text fill="#000000" font-family="sans-serif" font-size="14" lengthAdjust="spacing" textLength="108.1445" x="1036.3584" y="114.7285">RabbitMQ Broker</text></g><g class="participant participant-tail" data-participant="mq"><path d="M1036.3584,608.3164 L1154.5029,608.3164 C1159.5029,608.3164 1159.5029,622.627 1159.5029,622.627 C1159.5029,622.627 1159.5029,636.9375 1154.5029,636.9375 L1036.3584,636.9375 C1031.3584,636.9375 1031.3584,622.627 1031.3584,622.627 C1031.3584,622.627 1031.3584,608.3164 1036.3584,608.3164" fill="#E2E2F0" style="stroke:#181818;stroke-width:0.5;"/><path d="M1154.5029,608.3164 C1149.5029,608.3164 1149.5029,622.627 1149.5029,622.627 C1149.5029,636.9375 1154.5029,636.9375 1154.5029,636.9375" fill="none" style="stroke:#181818;stroke-width:0.5;"/><text fill="#000000" font-family="sans-serif" font-size="14" lengthAdjust="spacing" textLength="108.1445" x="1036.3584" y="628.4238">RabbitMQ Broker</text></g><g class="participant participant-head" data-participant="consumer"><rect fill="#E2E2F0" height="32.6211" rx="2.5" ry="2.5" style="stroke:#181818;stroke-width:0.5;" width="139.2754" x="1352.9285" y="89.6211"/><text fill="#000000" font-family="sans-serif" font-size="14" lengthAdjust="spacing" textLength="125.2754" x="1359.9285" y="111.7285">DataSyncConsumer</text></g><g class="participant participant-tail" data-participant="consumer"><rect fill="#E2E2F0" height="32.6211" rx="2.5" ry="2.5" style="stroke:#181818;stroke-width:0.5;" width="139.2754" x="1352.9285" y="608.3164"/><text fill="#000000" font-family="sans-serif" font-size="14" lengthAdjust="spacing" textLength="125.2754" x="1359.9285" y="630.4238">DataSyncConsumer</text></g><g><title>API Gateway</title><rect fill="#FFFFFF" height="325.9102" style="stroke:#181818;stroke-width:1;" width="10" x="229.7197" y="156.5332"/></g><g><title>PhysicianController</title><rect fill="#FFFFFF" height="219.0371" style="stroke:#181818;stroke-width:1;" width="10" x="407.1523" y="232.1152"/></g><g><title>PhysicianService</title><rect fill="#FFFFFF" height="156.4551" style="stroke:#181818;stroke-width:1;" width="10" x="573.0977" y="263.4063"/></g><g><title>PhysicianRepository</title><rect fill="#FFFFFF" height="31.291" style="stroke:#181818;stroke-width:1;" width="10" x="713.8145" y="294.6973"/></g><g><title>PhysicianProducer</title><rect fill="#FFFFFF" height="31.291" style="stroke:#181818;stroke-width:1;" width="10" x="859.5933" y="357.2793"/></g><g><title>DataSyncConsumer</title><rect fill="#FFFFFF" height="37.291" style="stroke:#181818;stroke-width:1;" width="10" x="1417.5662" y="540.0254"/></g><g class="message" data-participant-1="Administrator" data-participant-2="gateway"><polygon fill="#181818" points="217.7197,152.5332,227.7197,156.5332,217.7197,160.5332,221.7197,156.5332" style="stroke:#181818;stroke-width:1;"/><line style="stroke:#181818;stroke-width:1;" x1="49.2344" x2="223.7197" y1="156.5332" y2="156.5332"/><text fill="#000000" font-family="sans-serif" font-size="13" font-weight="bold" lengthAdjust="spacing" textLength="7.23" x="56.2344" y="151.2705">1</text><text fill="#000000" font-family="sans-serif" font-size="13" lengthAdjust="spacing" textLength="150.2554" x="67.4644" y="151.2705">POST /physicians (JSON)</text></g><g class="message" data-participant-1="gateway" data-participant-2="gateway"><line style="stroke:#181818;stroke-width:1;" x1="239.7197" x2="281.7197" y1="187.8242" y2="187.8242"/><line style="stroke:#181818;stroke-width:1;" x1="281.7197" x2="281.7197" y1="187.8242" y2="200.8242"/><line style="stroke:#181818;stroke-width:1;" x1="240.7197" x2="281.7197" y1="200.8242" y2="200.8242"/><polygon fill="#181818" points="250.7197,196.8242,240.7197,200.8242,250.7197,204.8242,246.7197,200.8242" style="stroke:#181818;stroke-width:1;"/><text fill="#000000" font-family="sans-serif" font-size="13" font-weight="bold" lengthAdjust="spacing" textLength="7.23" x="246.7197" y="182.5615">2</text><text fill="#000000" font-family="sans-serif" font-size="13" lengthAdjust="spacing" textLength="132.2026" x="257.9497" y="182.5615">Valida JWT (Stateless)</text></g><g class="message" data-participant-1="gateway" data-participant-2="controller"><polygon fill="#181818" points="395.1523,228.1152,405.1523,232.1152,395.1523,236.1152,399.1523,232.1152" style="stroke:#181818;stroke-width:1;"/><line style="stroke:#181818;stroke-width:1;" x1="239.7197" x2="401.1523" y1="232.1152" y2="232.1152"/><text fill="#000000" font-family="sans-serif" font-size="13" font-weight="bold" lengthAdjust="spacing" textLength="7.23" x="246.7197" y="226.8525">3</text><text fill="#000000" font-family="sans-serif" font-size="13" lengthAdjust="spacing" textLength="106.2471" x="257.9497" y="226.8525">encaminha pedido</text></g><g class="message" data-participant-1="controller" data-participant-2="service"><polygon fill="#181818" points="561.0977,259.4063,571.0977,263.4063,561.0977,267.4063,565.0977,263.4063" style="stroke:#181818;stroke-width:1;"/><line style="stroke:#181818;stroke-width:1;" x1="417.1523" x2="567.0977" y1="263.4063" y2="263.4063"/><text fill="#000000" font-family="sans-serif" font-size="13" font-weight="bold" lengthAdjust="spacing" textLength="7.23" x="424.1523" y="258.1436">4</text><text fill="#000000" font-family="sans-serif" font-size="13" lengthAdjust="spacing" textLength="125.7153" x="435.3823" y="258.1436">registerPhysician(dto)</text></g><g class="message" data-participant-1="service" data-participant-2="repo"><polygon fill="#181818" points="701.8145,290.6973,711.8145,294.6973,701.8145,298.6973,705.8145,294.6973" style="stroke:#181818;stroke-width:1;"/><line style="stroke:#181818;stroke-width:1;" x1="583.0977" x2="707.8145" y1="294.6973" y2="294.6973"/><text fill="#000000" font-family="sans-serif" font-size="13" font-weight="bold" lengthAdjust="spacing" textLength="7.23" x="590.0977" y="289.4346">5</text><text fill="#000000" font-family="sans-serif" font-size="13" lengthAdjust="spacing" textLength="67.1899" x="601.3276" y="289.4346">save(entity)</text></g><g class="message" data-participant-1="repo" data-participant-2="service"><polygon fill="#181818" points="594.0977,321.9883,584.0977,325.9883,594.0977,329.9883,590.0977,325.9883" style="stroke:#181818;stroke-width:1;"/><line style="stroke:#181818;stroke-width:1;stroke-dasharray:2,2;" x1="588.0977" x2="717.8145" y1="325.9883" y2="325.9883"/><text fill="#000000" font-family="sans-serif" font-size="13" font-weight="bold" lengthAdjust="spacing" textLength="7.23" x="600.0977" y="320.7256">6</text><text fill="#000000" font-family="sans-serif" font-size="13" lengthAdjust="spacing" textLength="68.2817" x="611.3276" y="320.7256">entity (id=1)</text></g><g class="message" data-participant-1="service" data-participant-2="producer"><polygon fill="#181818" points="847.5933,353.2793,857.5933,357.2793,847.5933,361.2793,851.5933,357.2793" style="stroke:#181818;stroke-width:1;"/><line style="stroke:#181818;stroke-width:1;" x1="583.0977" x2="853.5933" y1="357.2793" y2="357.2793"/><text fill="#000000" font-family="sans-serif" font-size="13" font-weight="bold" lengthAdjust="spacing" textLength="7.23" x="590.0977" y="352.0166">7</text><text fill="#000000" font-family="sans-serif" font-size="13" lengthAdjust="spacing" textLength="172.688" x="601.3276" y="352.0166">notifyPhysicianCreated(entity)</text></g><g class="message" data-participant-1="producer" data-participant-2="mq"><polygon fill="#181818" points="1083.4307,384.5703,1093.4307,388.5703,1083.4307,392.5703,1087.4307,388.5703" style="stroke:#181818;stroke-width:1;"/><line style="stroke:#181818;stroke-width:1;" x1="864.5933" x2="1089.4307" y1="388.5703" y2="388.5703"/><text fill="#000000" font-family="sans-serif" font-size="13" font-weight="bold" lengthAdjust="spacing" textLength="7.23" x="871.5933" y="383.3076">8</text><text fill="#000000" font-family="sans-serif" font-size="13" lengthAdjust="spacing" textLength="190.6074" x="882.8232" y="383.3076">Publish "PhysicianCreatedEvent"</text></g><g class="message" data-participant-1="service" data-participant-2="controller"><polygon fill="#181818" points="428.1523,415.8613,418.1523,419.8613,428.1523,423.8613,424.1523,419.8613" style="stroke:#181818;stroke-width:1;"/><line style="stroke:#181818;stroke-width:1;stroke-dasharray:2,2;" x1="422.1523" x2="577.0977" y1="419.8613" y2="419.8613"/><text fill="#000000" font-family="sans-serif" font-size="13" font-weight="bold" lengthAdjust="spacing" textLength="7.23" x="434.1523" y="414.5986">9</text><text fill="#000000" font-family="sans-serif" font-size="13" lengthAdjust="spacing" textLength="64.6509" x="445.3823" y="414.5986">DTO (id=1)</text></g><g class="message" data-participant-1="controller" data-participant-2="gateway"><polygon fill="#181818" points="250.7197,447.1523,240.7197,451.1523,250.7197,455.1523,246.7197,451.1523" style="stroke:#181818;stroke-width:1;"/><line style="stroke:#181818;stroke-width:1;stroke-dasharray:2,2;" x1="244.7197" x2="411.1523" y1="451.1523" y2="451.1523"/><text fill="#000000" font-family="sans-serif" font-size="13" font-weight="bold" lengthAdjust="spacing" textLength="14.46" x="256.7197" y="445.8896">10</text><text fill="#000000" font-family="sans-serif" font-size="13" lengthAdjust="spacing" textLength="71.5508" x="275.1797" y="445.8896">201 Created</text></g><g class="message" data-participant-1="gateway" data-participant-2="Administrator"><polygon fill="#181818" points="60.2344,478.4434,50.2344,482.4434,60.2344,486.4434,56.2344,482.4434" style="stroke:#181818;stroke-width:1;"/><line style="stroke:#181818;stroke-width:1;stroke-dasharray:2,2;" x1="54.2344" x2="233.7197" y1="482.4434" y2="482.4434"/><text fill="#000000" font-family="sans-serif" font-size="13" font-weight="bold" lengthAdjust="spacing" textLength="14.46" x="66.2344" y="477.1807">11</text><text fill="#000000" font-family="sans-serif" font-size="13" lengthAdjust="spacing" textLength="71.5508" x="84.6943" y="477.1807">201 Created</text></g><path d="M1021.3584,497.4434 L1376.2764,497.4434 L1376.2764,506.7344 L1366.2764,516.7344 L1021.3584,516.7344 L1021.3584,497.4434" fill="#EEEEEE" style="stroke:#000000;stroke-width:1.5;"/><rect fill="none" height="94.873" style="stroke:#000000;stroke-width:1.5;" width="664.6448" x="1021.3584" y="497.4434"/><text fill="#000000" font-family="sans-serif" font-size="13" font-weight="bold" lengthAdjust="spacing" textLength="309.918" x="1036.3584" y="512.4717">Sincroniza&#231;&#227;o Ass&#237;ncrona (Eventual Consistency)</text><g class="message" data-participant-1="mq" data-participant-2="consumer"><polygon fill="#181818" points="1405.5662,536.0254,1415.5662,540.0254,1405.5662,544.0254,1409.5662,540.0254" style="stroke:#181818;stroke-width:1;"/><line style="stroke:#181818;stroke-width:1;" x1="1095.4307" x2="1411.5662" y1="540.0254" y2="540.0254"/><text fill="#000000" font-family="sans-serif" font-size="13" font-weight="bold" lengthAdjust="spacing" textLength="14.46" x="1102.4307" y="534.7627">12</text><text fill="#000000" font-family="sans-serif" font-size="13" lengthAdjust="spacing" textLength="203.6074" x="1120.8906" y="534.7627">Consome "PhysicianCreatedEvent"</text></g><g class="message" data-participant-1="consumer" data-participant-2="consumer"><line style="stroke:#181818;stroke-width:1;" x1="1427.5662" x2="1469.5662" y1="576.3164" y2="576.3164"/><line style="stroke:#181818;stroke-width:1;" x1="1469.5662" x2="1469.5662" y1="576.3164" y2="589.3164"/><line style="stroke:#181818;stroke-width:1;" x1="1422.5662" x2="1469.5662" y1="589.3164" y2="589.3164"/><polygon fill="#181818" points="1432.5662,585.3164,1422.5662,589.3164,1432.5662,593.3164,1428.5662,589.3164" style="stroke:#181818;stroke-width:1;"/><text fill="#000000" font-family="sans-serif" font-size="13" font-weight="bold" lengthAdjust="spacing" textLength="14.46" x="1434.5662" y="571.0537">13</text><text fill="#000000" font-family="sans-serif" font-size="13" lengthAdjust="spacing" textLength="210.9771" x="1453.0261" y="571.0537">Grava na R&#233;plica B / Atualiza CQRS</text></g><!--SRC=[XLHDZzCm4BtxLupA9JbK-u641198tUvsnKhGRbEMypGnhKLYfxPJA7-70-B0h-WVOvmFnrbsYtlnHFEUtyoRgHKsv_0fENy9OrZoZJ2MQrXi3qQa0YLZM5abgsBDDTrJgpHCia98ojD84IjHMqejKLeOJHRluHOj_uQ74Q21JNDdRAs-myYpGiBrNgGSeYKlSv4YJE8HlBXvDRkSpHZG6R1wt5H9grMUSrspfpuyWMcVgW6ckP_89ZtA2AghqQyfF96zq2ghqbPDsGQComoeNiPs5QyuZ9QuNWlxuHwkjFhQ9XUx__VaAeOpc9Ib4j8Md1vE7gRKfTbhz_jNrJLQJ0uofIQPgkXRL0UzA3Qm3yRlEfFW3IpcoGhEoawIWUWkcN-CdUzYJrdUpmuoG3zWBZA4kyyhY19BdtDkJCp2vDunokSoHPAoHIXv9ZBLFnCOIyTL6W29flMHE7GxiRwDKMPLN4CyM-Twm-HEXoSgvp3n6DppY7eix27sQPx1Zu4xDM8yKD408HBPsuiUdl4XmLFFTqD3959PyUNGpxhcXCoU5-Nd3OBZ-OYxs3bBgtKkp3PSeeRuPa_CewV4Uc8s4FlOlklLFAmu8F0D3rqRZChb-GMqEbW037ptGqEuuSG-Y_P_DcoZLLL28cIgbHG_yFZh-5F1n9ZZd_eJGbINNs4ERbtS2CcqRJArhIcrNXnwpcMeWfziOLX2it3jr3OaGy9RZNi4Kh4y_cvNtMswaqDYONg_J1wtDDnZzXS0]--></g></svg>