<svg xmlns="http://www.w3.org/2000/svg" xmlns:xlink="http://www.w3.org/1999/xlink" contentStyleType="text/css" data-diagram-type="SEQUENCE" height="768px" preserveAspectRatio="none" style="width:1539px;height:768px;background:#FFFFFF;" version="1.1" viewBox="0 0 1539 768" width="1539px" zoomAndPan="magnify"><title>US-Delete-Patient: As Admin, I want to delete a Patient</title><defs/><g><text fill="#000000" font-family="sans-serif" font-size="14" font-weight="bold" lengthAdjust="spacing" textLength="362.5029" x="621.2117" y="30.1074">US-Delete-Patient: As Admin, I want to delete a Patient</text><rect fill="#E6F2FF" height="717.1895" style="stroke:#181818;stroke-width:0.5;" width="513.0664" x="299.9536" y="45.6211"/><text fill="#000000" font-family="sans-serif" font-size="13" font-weight="bold" lengthAdjust="spacing" textLength="164.728" x="474.1228" y="59.6494">Patient Service (Replica A)</text><rect fill="#F9F9F9" height="717.1895" style="stroke:#181818;stroke-width:0.5;" width="292.0571" x="1121.8799" y="45.6211"/><text fill="#000000" font-family="sans-serif" font-size="13" font-weight="bold" lengthAdjust="spacing" textLength="286.0571" x="1124.8799" y="59.6494">Patient Service (Replica B) / Appointment SVC</text><g><title>API Gateway</title><rect fill="#FFFFFF" height="397.7832" style="stroke:#181818;stroke-width:1;" width="10" x="205.2051" y="156.5332"/></g><g><title>PatientController</title><rect fill="#FFFFFF" height="219.0371" style="stroke:#181818;stroke-width:1;" width="10" x="358.0913" y="303.9883"/></g><g><title>PatientService</title><rect fill="#FFFFFF" height="156.4551" style="stroke:#181818;stroke-width:1;" width="10" x="492.9902" y="335.2793"/></g><g><title>PatientRepository</title><rect fill="#FFFFFF" height="31.291" style="stroke:#181818;stroke-width:1;" width="10" x="617.376" y="366.5703"/></g><g><title>PatientProducer</title><rect fill="#FFFFFF" height="31.291" style="stroke:#181818;stroke-width:1;" width="10" x="746.8237" y="429.1523"/></g><g><title>DataSyncConsumer</title><rect fill="#FFFFFF" height="37.291" style="stroke:#181818;stroke-width:1;" width="10" x="1262.9084" y="611.8984"/></g><rect fill="none" height="94.873" style="stroke:#000000;stroke-width:1.5;" width="641.552" x="891.9834" y="569.3164"/><g><title>Administrator</title><rect fill="#000000" fill-opacity="0.00000" height="557.9473" width="8" x="45.2344" y="123.2422"/><line style="stroke:#181818;stroke-width:0.5;stroke-dasharray:5,5;" x1="49" x2="49" y1="123.2422" y2="681.1895"/></g><g><title>API Gateway</title><rect fill="#000000" fill-opacity="0.00000" height="557.9473" width="8" x="206.2051" y="123.2422"/><line style="stroke:#181818;stroke-width:0.5;stroke-dasharray:5,5;" x1="209.3535" x2="209.3535" y1="123.2422" y2="681.1895"/></g><g><title>PatientController</title><rect fill="#000000" fill-opacity="0.00000" height="557.9473" width="8" x="359.0913" y="123.2422"/><line style="stroke:#181818;stroke-width:0.5;stroke-dasharray:5,5;" x1="362.9536" x2="362.9536" y1="123.2422" y2="681.1895"/></g><g><title>PatientService</title><rect fill="#000000" fill-opacity="0.00000" height="557.9473" width="8" x="493.9902" y="123.2422"/><line style="stroke:#181818;stroke-width:0.5;stroke-dasharray:5,5;" x1="497.856" x2="497.856" y1="123.2422" y2="681.1895"/></g><g><title>PatientRepository</title><rect fill="#000000" fill-opacity="0.00000" height="557.9473" width="8" x="618.376" y="123.2422"/><line style="stroke:#181818;stroke-width:0.5;stroke-dasharray:5,5;" x1="622.1245" x2="622.1245" y1="123.2422" y2="681.1895"/></g><g><title>PatientProducer</title><rect fill="#000000" fill-opacity="0.00000" height="557.9473" width="8" x="747.8237" y="123.2422"/><line style="stroke:#181818;stroke-width:0.5;stroke-dasharray:5,5;" x1="751.6274" x2="751.6274" y1="123.2422" y2="681.1895"/></g><g><title>RabbitMQ Broker</title><rect fill="#000000" fill-opacity="0.00000" height="557.9473" width="8" x="962.0557" y="123.2422"/><line style="stroke:#181818;stroke-width:0.5;stroke-dasharray:5,5;" x1="965.9834" x2="965.9834" y1="123.2422" y2="681.1895"/></g><g><title>DataSyncConsumer</title><rect fill="#000000" fill-opacity="0.00000" height="557.9473" width="8" x="1263.9084" y="123.2422"/><line style="stroke:#181818;stroke-width:0.5;stroke-dasharray:5,5;" x1="1267.2708" x2="1267.2708" y1="123.2422" y2="681.1895"/></g><g class="participant participant-head" data-participant="Administrator"><text fill="#000000" font-family="sans-serif" font-size="14" lengthAdjust="spacing" textLength="82.4688" x="5" y="119.7285">Administrator</text><ellipse cx="49.2344" cy="53.1211" fill="#E2E2F0" rx="8" ry="8" style="stroke:#181818;stroke-width:0.5;"/><path d="M49.2344,61.1211 L49.2344,88.1211 M36.2344,69.1211 L62.2344,69.1211 M49.2344,88.1211 L36.2344,103.1211 M49.2344,88.1211 L62.2344,103.1211" fill="none" style="stroke:#181818;stroke-width:0.5;"/></g><g class="participant participant-tail" data-participant="Administrator"><text fill="#000000" font-family="sans-serif" font-size="14" lengthAdjust="spacing" textLength="82.4688" x="5" y="695.2969">Administrator</text><ellipse cx="49.2344" cy="707.3105" fill="#E2E2F0" rx="8" ry="8" style="stroke:#181818;stroke-width:0.5;"/><path d="M49.2344,715.3105 L49.2344,742.3105 M36.2344,723.3105 L62.2344,723.3105 M49.2344,742.3105 L36.2344,757.3105 M49.2344,742.3105 L62.2344,757.3105" fill="none" style="stroke:#181818;stroke-width:0.5;"/></g><g class="participant participant-head" data-participant="gateway"><rect fill="#E2E2F0" height="32.6211" rx="2.5" ry="2.5" style="stroke:#181818;stroke-width:0.5;" width="95.7031" x="162.3535" y="89.6211"/><text fill="#000000" font-family="sans-serif" font-size="14" lengthAdjust="spacing" textLength="81.7031" x="169.3535" y="111.7285">API Gateway</text></g><g class="participant participant-tail" data-participant="gateway"><rect fill="#E2E2F0" height="32.6211" rx="2.5" ry="2.5" style="stroke:#181818;stroke-width:0.5;" width="95.7031" x="162.3535" y="680.1895"/><text fill="#000000" font-family="sans-serif" font-size="14" lengthAdjust="spacing" textLength="81.7031" x="169.3535" y="702.2969">API Gateway</text></g><g class="participant participant-head" data-participant="controller"><rect fill="#E2E2F0" height="32.6211" rx="2.5" ry="2.5" style="stroke:#181818;stroke-width:0.5;" width="118.2754" x="303.9536" y="89.6211"/><text fill="#000000" font-family="sans-serif" font-size="14" lengthAdjust="spacing" textLength="104.2754" x="310.9536" y="111.7285">PatientController</text></g><g class="participant participant-tail" data-participant="controller"><rect fill="#E2E2F0" height="32.6211" rx="2.5" ry="2.5" style="stroke:#181818;stroke-width:0.5;" width="118.2754" x="303.9536" y="680.1895"/><text fill="#000000" font-family="sans-serif" font-size="14" lengthAdjust="spacing" textLength="104.2754" x="310.9536" y="702.2969">PatientController</text></g><g class="participant participant-head" data-participant="service"><rect fill="#E2E2F0" height="32.6211" rx="2.5" ry="2.5" style="stroke:#181818;stroke-width:0.5;" width="104.2686" x="445.856" y="89.6211"/><text fill="#000000" font-family="sans-serif" font-size="14" lengthAdjust="spacing" textLength="90.2686" x="452.856" y="111.7285">PatientService</text></g><g class="participant participant-tail" data-participant="service"><rect fill="#E2E2F0" height="32.6211" rx="2.5" ry="2.5" style="stroke:#181818;stroke-width:0.5;" width="104.2686" x="445.856" y="680.1895"/><text fill="#000000" font-family="sans-serif" font-size="14" lengthAdjust="spacing" textLength="90.2686" x="452.856" y="702.2969">PatientService</text></g><g class="participant participant-head" data-participant="repo"><rect fill="#E2E2F0" height="32.6211" rx="2.5" ry="2.5" style="stroke:#181818;stroke-width:0.5;" width="124.5029" x="560.1245" y="89.6211"/><text fill="#000000" font-family="sans-serif" font-size="14" lengthAdjust="spacing" textLength="110.5029" x="567.1245" y="111.7285">PatientRepository</text></g><g class="participant participant-tail" data-participant="repo"><rect fill="#E2E2F0" height="32.6211" rx="2.5" ry="2.5" style="stroke:#181818;stroke-width:0.5;" width="124.5029" x="560.1245" y="680.1895"/><text fill="#000000" font-family="sans-serif" font-size="14" lengthAdjust="spacing" textLength="110.5029" x="567.1245" y="702.2969">PatientRepository</text></g><g class="participant participant-head" data-participant="producer"><rect fill="#E2E2F0" height="32.6211" rx="2.5" ry="2.5" style="stroke:#181818;stroke-width:0.5;" width="114.3926" x="694.6274" y="89.6211"/><text fill="#000000" font-family="sans-serif" font-size="14" lengthAdjust="spacing" textLength="100.3926" x="701.6274" y="111.7285">PatientProducer</text></g><g class="participant participant-tail" data-participant="producer"><rect fill="#E2E2F0" height="32.6211" rx="2.5" ry="2.5" style="stroke:#181818;stroke-width:0.5;" width="114.3926" x="694.6274" y="680.1895"/><text fill="#000000" font-family="sans-serif" font-size="14" lengthAdjust="spacing" textLength="100.3926" x="701.6274" y="702.2969">PatientProducer</text></g><g class="participant participant-head" data-participant="mq"><path d="M906.9834,94.6211 L1025.1279,94.6211 C1030.1279,94.6211 1030.1279,108.9316 1030.1279,108.9316 C1030.1279,108.9316 1030.1279,123.2422 1025.1279,123.2422 L906.9834,123.2422 C901.9834,123.2422 901.9834,108.9316 901.9834,108.9316 C901.9834,108.9316 901.9834,94.6211 906.9834,94.6211" fill="#E2E2F0" style="stroke:#181818;stroke-width:0.5;"/><path d="M1025.1279,94.6211 C1020.1279,94.6211 1020.1279,108.9316 1020.1279,108.9316 C1020.1279,123.2422 1025.1279,123.2422 1025.1279,123.2422" fill="none" style="stroke:#181818;stroke-width:0.5;"/><text fill="#000000" font-family="sans-serif" font-size="14" lengthAdjust="spacing" textLength="108.1445" x="906.9834" y="114.7285">RabbitMQ Broker</text></g><g class="participant participant-tail" data-participant="mq"><path d="M906.9834,680.1895 L1025.1279,680.1895 C1030.1279,680.1895 1030.1279,694.5 1030.1279,694.5 C1030.1279,694.5 1030.1279,708.8105 1025.1279,708.8105 L906.9834,708.8105 C901.9834,708.8105 901.9834,694.5 901.9834,694.5 C901.9834,694.5 901.9834,680.1895 906.9834,680.1895" fill="#E2E2F0" style="stroke:#181818;stroke-width:0.5;"/><path d="M1025.1279,680.1895 C1020.1279,680.1895 1020.1279,694.5 1020.1279,694.5 C1020.1279,708.8105 1025.1279,708.8105 1025.1279,708.8105" fill="none" style="stroke:#181818;stroke-width:0.5;"/><text fill="#000000" font-family="sans-serif" font-size="14" lengthAdjust="spacing" textLength="108.1445" x="906.9834" y="700.2969">RabbitMQ Broker</text></g><g class="participant participant-head" data-participant="consumer"><rect fill="#E2E2F0" height="32.6211" rx="2.5" ry="2.5" style="stroke:#181818;stroke-width:0.5;" width="139.2754" x="1198.2708" y="89.6211"/><text fill="#000000" font-family="sans-serif" font-size="14" lengthAdjust="spacing" textLength="125.2754" x="1205.2708" y="111.7285">DataSyncConsumer</text></g><g class="participant participant-tail" data-participant="consumer"><rect fill="#E2E2F0" height="32.6211" rx="2.5" ry="2.5" style="stroke:#181818;stroke-width:0.5;" width="139.2754" x="1198.2708" y="680.1895"/><text fill="#000000" font-family="sans-serif" font-size="14" lengthAdjust="spacing" textLength="125.2754" x="1205.2708" y="702.2969">DataSyncConsumer</text></g><g><title>API Gateway</title><rect fill="#FFFFFF" height="397.7832" style="stroke:#181818;stroke-width:1;" width="10" x="205.2051" y="156.5332"/></g><g><title>PatientController</title><rect fill="#FFFFFF" height="219.0371" style="stroke:#181818;stroke-width:1;" width="10" x="358.0913" y="303.9883"/></g><g><title>PatientService</title><rect fill="#FFFFFF" height="156.4551" style="stroke:#181818;stroke-width:1;" width="10" x="492.9902" y="335.2793"/></g><g><title>PatientRepository</title><rect fill="#FFFFFF" height="31.291" style="stroke:#181818;stroke-width:1;" width="10" x="617.376" y="366.5703"/></g><g><title>PatientProducer</title><rect fill="#FFFFFF" height="31.291" style="stroke:#181818;stroke-width:1;" width="10" x="746.8237" y="429.1523"/></g><g><title>DataSyncConsumer</title><rect fill="#FFFFFF" height="37.291" style="stroke:#181818;stroke-width:1;" width="10" x="1262.9084" y="611.8984"/></g><g class="message" data-participant-1="Administrator" data-participant-2="gateway"><polygon fill="#181818" points="193.2051,152.5332,203.2051,156.5332,193.2051,160.5332,197.2051,156.5332" style="stroke:#181818;stroke-width:1;"/><line style="stroke:#181818;stroke-width:1;" x1="49.2344" x2="199.2051" y1="156.5332" y2="156.5332"/><text fill="#000000" font-family="sans-serif" font-size="13" font-weight="bold" lengthAdjust="spacing" textLength="7.23" x="56.2344" y="151.2705">1</text><text fill="#000000" font-family="sans-serif" font-size="13" lengthAdjust="spacing" textLength="125.7407" x="67.4644" y="151.2705">DELETE /patients/{id}</text></g><path d="M220,169.5332 L220,230.5332 L378,230.5332 L378,179.5332 L368,169.5332 L220,169.5332" fill="#FEFFDD" style="stroke:#181818;stroke-width:0.5;"/><path d="M368,169.5332 L368,179.5332 L378,179.5332 L368,169.5332" fill="#FEFFDD" style="stroke:#181818;stroke-width:0.5;"/><text fill="#000000" font-family="sans-serif" font-size="13" font-weight="bold" lengthAdjust="spacing" textLength="93.9326" x="226" y="188.5615">Security Check</text><text fill="#000000" font-family="sans-serif" font-size="13" lengthAdjust="spacing" textLength="117.0444" x="226" y="205.8525">Valida Token JWT e</text><text fill="#000000" font-family="sans-serif" font-size="13" lengthAdjust="spacing" textLength="137.4585" x="226" y="223.1436">verifica Role = "ADMIN"</text><g class="message" data-participant-1="gateway" data-participant-2="gateway"><line style="stroke:#181818;stroke-width:1;" x1="215.2051" x2="257.2051" y1="259.6973" y2="259.6973"/><line style="stroke:#181818;stroke-width:1;" x1="257.2051" x2="257.2051" y1="259.6973" y2="272.6973"/><line style="stroke:#181818;stroke-width:1;" x1="216.2051" x2="257.2051" y1="272.6973" y2="272.6973"/><polygon fill="#181818" points="226.2051,268.6973,216.2051,272.6973,226.2051,276.6973,222.2051,272.6973" style="stroke:#181818;stroke-width:1;"/><text fill="#000000" font-family="sans-serif" font-size="13" font-weight="bold" lengthAdjust="spacing" textLength="7.23" x="222.2051" y="254.4346">2</text><text fill="#000000" font-family="sans-serif" font-size="13" lengthAdjust="spacing" textLength="107.6563" x="233.4351" y="254.4346">Valida Permiss&#245;es</text></g><g class="message" data-participant-1="gateway" data-participant-2="controller"><polygon fill="#181818" points="346.0913,299.9883,356.0913,303.9883,346.0913,307.9883,350.0913,303.9883" style="stroke:#181818;stroke-width:1;"/><line style="stroke:#181818;stroke-width:1;" x1="215.2051" x2="352.0913" y1="303.9883" y2="303.9883"/><text fill="#000000" font-family="sans-serif" font-size="13" font-weight="bold" lengthAdjust="spacing" textLength="7.23" x="222.2051" y="298.7256">3</text><text fill="#000000" font-family="sans-serif" font-size="13" lengthAdjust="spacing" textLength="106.2471" x="233.4351" y="298.7256">encaminha pedido</text></g><g class="message" data-participant-1="controller" data-participant-2="service"><polygon fill="#181818" points="480.9902,331.2793,490.9902,335.2793,480.9902,339.2793,484.9902,335.2793" style="stroke:#181818;stroke-width:1;"/><line style="stroke:#181818;stroke-width:1;" x1="368.0913" x2="486.9902" y1="335.2793" y2="335.2793"/><text fill="#000000" font-family="sans-serif" font-size="13" font-weight="bold" lengthAdjust="spacing" textLength="7.23" x="375.0913" y="330.0166">4</text><text fill="#000000" font-family="sans-serif" font-size="13" lengthAdjust="spacing" textLength="94.6689" x="386.3213" y="330.0166">deletePatient(id)</text></g><g class="message" data-participant-1="service" data-participant-2="repo"><polygon fill="#181818" points="605.376,362.5703,615.376,366.5703,605.376,370.5703,609.376,366.5703" style="stroke:#181818;stroke-width:1;"/><line style="stroke:#181818;stroke-width:1;" x1="502.9902" x2="611.376" y1="366.5703" y2="366.5703"/><text fill="#000000" font-family="sans-serif" font-size="13" font-weight="bold" lengthAdjust="spacing" textLength="7.23" x="509.9902" y="361.3076">5</text><text fill="#000000" font-family="sans-serif" font-size="13" lengthAdjust="spacing" textLength="80.209" x="521.2202" y="361.3076">deleteById(id)</text></g><g class="message" data-participant-1="repo" data-participant-2="service"><polygon fill="#181818" points="513.9902,393.8613,503.9902,397.8613,513.9902,401.8613,509.9902,397.8613" style="stroke:#181818;stroke-width:1;"/><line style="stroke:#181818;stroke-width:1;stroke-dasharray:2,2;" x1="507.9902" x2="621.376" y1="397.8613" y2="397.8613"/><text fill="#000000" font-family="sans-serif" font-size="13" font-weight="bold" lengthAdjust="spacing" textLength="7.23" x="519.9902" y="392.5986">6</text><text fill="#000000" font-family="sans-serif" font-size="13" lengthAdjust="spacing" textLength="23.8481" x="531.2202" y="392.5986">void</text></g><g class="message" data-participant-1="service" data-participant-2="producer"><polygon fill="#181818" points="734.8237,425.1523,744.8237,429.1523,734.8237,433.1523,738.8237,429.1523" style="stroke:#181818;stroke-width:1;"/><line style="stroke:#181818;stroke-width:1;" x1="502.9902" x2="740.8237" y1="429.1523" y2="429.1523"/><text fill="#000000" font-family="sans-serif" font-size="13" font-weight="bold" lengthAdjust="spacing" textLength="7.23" x="509.9902" y="423.8896">7</text><text fill="#000000" font-family="sans-serif" font-size="13" lengthAdjust="spacing" textLength="135.1289" x="521.2202" y="423.8896">notifyPatientDeleted(id)</text></g><g class="message" data-participant-1="producer" data-participant-2="mq"><polygon fill="#181818" points="954.0557,456.4434,964.0557,460.4434,954.0557,464.4434,958.0557,460.4434" style="stroke:#181818;stroke-width:1;"/><line style="stroke:#181818;stroke-width:1;" x1="751.8237" x2="960.0557" y1="460.4434" y2="460.4434"/><text fill="#000000" font-family="sans-serif" font-size="13" font-weight="bold" lengthAdjust="spacing" textLength="7.23" x="758.8237" y="455.1807">8</text><text fill="#000000" font-family="sans-serif" font-size="13" lengthAdjust="spacing" textLength="174.002" x="770.0537" y="455.1807">Publish "PatientDeletedEvent"</text></g><g class="message" data-participant-1="service" data-participant-2="controller"><polygon fill="#181818" points="379.0913,487.7344,369.0913,491.7344,379.0913,495.7344,375.0913,491.7344" style="stroke:#181818;stroke-width:1;"/><line style="stroke:#181818;stroke-width:1;stroke-dasharray:2,2;" x1="373.0913" x2="496.9902" y1="491.7344" y2="491.7344"/><text fill="#000000" font-family="sans-serif" font-size="13" font-weight="bold" lengthAdjust="spacing" textLength="7.23" x="385.0913" y="486.4717">9</text><text fill="#000000" font-family="sans-serif" font-size="13" lengthAdjust="spacing" textLength="23.8481" x="396.3213" y="486.4717">void</text></g><g class="message" data-participant-1="controller" data-participant-2="gateway"><polygon fill="#181818" points="226.2051,519.0254,216.2051,523.0254,226.2051,527.0254,222.2051,523.0254" style="stroke:#181818;stroke-width:1;"/><line style="stroke:#181818;stroke-width:1;stroke-dasharray:2,2;" x1="220.2051" x2="362.0913" y1="523.0254" y2="523.0254"/><text fill="#000000" font-family="sans-serif" font-size="13" font-weight="bold" lengthAdjust="spacing" textLength="14.46" x="232.2051" y="517.7627">10</text><text fill="#000000" font-family="sans-serif" font-size="13" lengthAdjust="spacing" textLength="91.0635" x="250.665" y="517.7627">204 No Content</text></g><g class="message" data-participant-1="gateway" data-participant-2="Administrator"><polygon fill="#181818" points="60.2344,550.3164,50.2344,554.3164,60.2344,558.3164,56.2344,554.3164" style="stroke:#181818;stroke-width:1;"/><line style="stroke:#181818;stroke-width:1;stroke-dasharray:2,2;" x1="54.2344" x2="209.2051" y1="554.3164" y2="554.3164"/><text fill="#000000" font-family="sans-serif" font-size="13" font-weight="bold" lengthAdjust="spacing" textLength="14.46" x="66.2344" y="549.0537">11</text><text fill="#000000" font-family="sans-serif" font-size="13" lengthAdjust="spacing" textLength="91.0635" x="84.6943" y="549.0537">204 No Content</text></g><path d="M891.9834,569.3164 L1099.5342,569.3164 L1099.5342,578.6074 L1089.5342,588.6074 L891.9834,588.6074 L891.9834,569.3164" fill="#EEEEEE" style="stroke:#000000;stroke-width:1.5;"/><rect fill="none" height="94.873" style="stroke:#000000;stroke-width:1.5;" width="641.552" x="891.9834" y="569.3164"/><text fill="#000000" font-family="sans-serif" font-size="13" font-weight="bold" lengthAdjust="spacing" textLength="162.5508" x="906.9834" y="584.3447">Sincroniza&#231;&#227;o Ass&#237;ncrona</text><g class="message" data-participant-1="mq" data-participant-2="consumer"><polygon fill="#181818" points="1250.9084,607.8984,1260.9084,611.8984,1250.9084,615.8984,1254.9084,611.8984" style="stroke:#181818;stroke-width:1;"/><line style="stroke:#181818;stroke-width:1;" x1="966.0557" x2="1256.9084" y1="611.8984" y2="611.8984"/><text fill="#000000" font-family="sans-serif" font-size="13" font-weight="bold" lengthAdjust="spacing" textLength="14.46" x="973.0557" y="606.6357">12</text><text fill="#000000" font-family="sans-serif" font-size="13" lengthAdjust="spacing" textLength="187.002" x="991.5156" y="606.6357">Consome "PatientDeletedEvent"</text></g><g class="message" data-participant-1="consumer" data-participant-2="consumer"><line style="stroke:#181818;stroke-width:1;" x1="1272.9084" x2="1314.9084" y1="648.1895" y2="648.1895"/><line style="stroke:#181818;stroke-width:1;" x1="1314.9084" x2="1314.9084" y1="648.1895" y2="661.1895"/><line style="stroke:#181818;stroke-width:1;" x1="1267.9084" x2="1314.9084" y1="661.1895" y2="661.1895"/><polygon fill="#181818" points="1277.9084,657.1895,1267.9084,661.1895,1277.9084,665.1895,1273.9084,661.1895" style="stroke:#181818;stroke-width:1;"/><text fill="#000000" font-family="sans-serif" font-size="13" font-weight="bold" lengthAdjust="spacing" textLength="14.46" x="1279.9084" y="642.9268">13</text><text fill="#000000" font-family="sans-serif" font-size="13" lengthAdjust="spacing" textLength="213.167" x="1298.3684" y="642.9268">Apaga na R&#233;plica B / Atualiza CQRS</text></g><!--SRC=[XLJDRXCn4BxlKuoMGvk8fL0X92g1bDygq9OqQSlPMRk9rLrxQtlJfeYduO0uSEG9ycAClOwpMvhYI96zdldypSmtOxZ965nEapxBc679c1ZEX3c2ZeOEpRbu2IEu8yA0aK2T3H3mLb54IYD5cS-OmdrgfAgSk3QAu2agY38yvOK5Y3lZ4HmJm-x8AWQYOLxjesWcxo7sc31bQibJ1liJLcGy9T1fnV1Yy6vuE1n6WAk1wRrwKXWbiumfXvo6uquF_umprzL-foqoaPfZF1LlXSUTjcCbQPbw7eK_H4nGm2YZwBPa9ODuGcOpRaxFeQlaZJVER_-NYMuB3g1J598BapkBgnxcPlZU_lvbr2U6J5SYnUJeCj-cnXssb1eLW-JZfYvm1Ft1oU1Y00T5nKWVVEFqkoqqNwBDje3sQI7nY-BpXG5v7Qx0htPxoj9ISRE2teAbD-rskBeY6QS4BZ0H0ZvzlG0MhfPCyMiR-KIYIZ-WXFgdexFOtLl-zartS7yRteqGFFgOgPnhlVx3TELGCzwg1UsPI0dcOq6WO9HJkOss9Ye7KND34AyXHAYwn1TndzEMimum6x658FVWpIkiAfaJE94foMnbjodOuE8JLdS1lxiQqG3UU238qoxdapJuBIMduPwofb-DrI6oMd9DG49U2YfXVyWLIuYWoL2gEJEjfqXk98yFONNuzSedefelEoY7Fe7Q2aY8cjyYthYSPLmlGeDuoC4Iz_5J4GNOg47oSSb3GcgkeKhrAZU4TVZwBPn9i9F7ZiAQRqqeGMNeskopvm12N-sXOmA3K-XsUf-F9rykp_hsIpHNiYnWoaMgfE0FPFrp_KFYoDRht-uJSU5WqgfGNSFZYtOGo9mzay1w3DMOy4gl89fmbMO5TkVwbnzGTZwP4blkWK3lV39zdDRwz8d-0W00]--></g></svg>